<?xml version="1.0" encoding="utf-8"?>
<svg xmlns="http://www.w3.org/2000/svg" xmlns:xlink="http://www.w3.org/1999/xlink" width="600" height="400" viewBox="0 0 2400 1600">
<defs>
  <clipPath id="clip610">
    <rect x="0" y="0" width="2400" height="1600"/>
  </clipPath>
</defs>
<path clip-path="url(#clip610)" d="
M0 1600 L2400 1600 L2400 0 L0 0  Z
  " fill="#ffffff" fill-rule="evenodd" fill-opacity="1"/>
<defs>
  <clipPath id="clip611">
    <rect x="480" y="0" width="1681" height="1600"/>
  </clipPath>
</defs>
<path clip-path="url(#clip610)" d="
M156.112 1423.18 L2352.76 1423.18 L2352.76 47.2441 L156.112 47.2441  Z
  " fill="#ffffff" fill-rule="evenodd" fill-opacity="1"/>
<defs>
  <clipPath id="clip612">
    <rect x="156" y="47" width="2198" height="1377"/>
  </clipPath>
</defs>
<polyline clip-path="url(#clip612)" style="stroke:#000000; stroke-linecap:butt; stroke-linejoin:round; stroke-width:2; stroke-opacity:0.1; fill:none" points="
  218.281,1423.18 218.281,47.2441 
  "/>
<polyline clip-path="url(#clip612)" style="stroke:#000000; stroke-linecap:butt; stroke-linejoin:round; stroke-width:2; stroke-opacity:0.1; fill:none" points="
  632.742,1423.18 632.742,47.2441 
  "/>
<polyline clip-path="url(#clip612)" style="stroke:#000000; stroke-linecap:butt; stroke-linejoin:round; stroke-width:2; stroke-opacity:0.1; fill:none" points="
  1047.2,1423.18 1047.2,47.2441 
  "/>
<polyline clip-path="url(#clip612)" style="stroke:#000000; stroke-linecap:butt; stroke-linejoin:round; stroke-width:2; stroke-opacity:0.1; fill:none" points="
  1461.66,1423.18 1461.66,47.2441 
  "/>
<polyline clip-path="url(#clip612)" style="stroke:#000000; stroke-linecap:butt; stroke-linejoin:round; stroke-width:2; stroke-opacity:0.1; fill:none" points="
  1876.13,1423.18 1876.13,47.2441 
  "/>
<polyline clip-path="url(#clip612)" style="stroke:#000000; stroke-linecap:butt; stroke-linejoin:round; stroke-width:2; stroke-opacity:0.1; fill:none" points="
  2290.59,1423.18 2290.59,47.2441 
  "/>
<polyline clip-path="url(#clip610)" style="stroke:#000000; stroke-linecap:butt; stroke-linejoin:round; stroke-width:4; stroke-opacity:1; fill:none" points="
  156.112,1423.18 2352.76,1423.18 
  "/>
<polyline clip-path="url(#clip610)" style="stroke:#000000; stroke-linecap:butt; stroke-linejoin:round; stroke-width:4; stroke-opacity:1; fill:none" points="
  218.281,1423.18 218.281,1404.28 
  "/>
<polyline clip-path="url(#clip610)" style="stroke:#000000; stroke-linecap:butt; stroke-linejoin:round; stroke-width:4; stroke-opacity:1; fill:none" points="
  632.742,1423.18 632.742,1404.28 
  "/>
<polyline clip-path="url(#clip610)" style="stroke:#000000; stroke-linecap:butt; stroke-linejoin:round; stroke-width:4; stroke-opacity:1; fill:none" points="
  1047.2,1423.18 1047.2,1404.28 
  "/>
<polyline clip-path="url(#clip610)" style="stroke:#000000; stroke-linecap:butt; stroke-linejoin:round; stroke-width:4; stroke-opacity:1; fill:none" points="
  1461.66,1423.18 1461.66,1404.28 
  "/>
<polyline clip-path="url(#clip610)" style="stroke:#000000; stroke-linecap:butt; stroke-linejoin:round; stroke-width:4; stroke-opacity:1; fill:none" points="
  1876.13,1423.18 1876.13,1404.28 
  "/>
<polyline clip-path="url(#clip610)" style="stroke:#000000; stroke-linecap:butt; stroke-linejoin:round; stroke-width:4; stroke-opacity:1; fill:none" points="
  2290.59,1423.18 2290.59,1404.28 
  "/>
<path clip-path="url(#clip610)" d="M218.281 1454.1 Q214.67 1454.1 212.842 1457.66 Q211.036 1461.2 211.036 1468.33 Q211.036 1475.44 212.842 1479.01 Q214.67 1482.55 218.281 1482.55 Q221.916 1482.55 223.721 1479.01 Q225.55 1475.44 225.55 1468.33 Q225.55 1461.2 223.721 1457.66 Q221.916 1454.1 218.281 1454.1 M218.281 1450.39 Q224.091 1450.39 227.147 1455 Q230.226 1459.58 230.226 1468.33 Q230.226 1477.06 227.147 1481.67 Q224.091 1486.25 218.281 1486.25 Q212.471 1486.25 209.392 1481.67 Q206.337 1477.06 206.337 1468.33 Q206.337 1459.58 209.392 1455 Q212.471 1450.39 218.281 1450.39 Z" fill="#000000" fill-rule="evenodd" fill-opacity="1" /><path clip-path="url(#clip610)" d="M623.124 1481.64 L630.763 1481.64 L630.763 1455.28 L622.453 1456.95 L622.453 1452.69 L630.717 1451.02 L635.393 1451.02 L635.393 1481.64 L643.032 1481.64 L643.032 1485.58 L623.124 1485.58 L623.124 1481.64 Z" fill="#000000" fill-rule="evenodd" fill-opacity="1" /><path clip-path="url(#clip610)" d="M1041.86 1481.64 L1058.18 1481.64 L1058.18 1485.58 L1036.23 1485.58 L1036.23 1481.64 Q1038.89 1478.89 1043.48 1474.26 Q1048.08 1469.61 1049.26 1468.27 Q1051.51 1465.74 1052.39 1464.01 Q1053.29 1462.25 1053.29 1460.56 Q1053.29 1457.8 1051.35 1456.07 Q1049.43 1454.33 1046.32 1454.33 Q1044.12 1454.33 1041.67 1455.09 Q1039.24 1455.86 1036.46 1457.41 L1036.46 1452.69 Q1039.29 1451.55 1041.74 1450.97 Q1044.19 1450.39 1046.23 1450.39 Q1051.6 1450.39 1054.8 1453.08 Q1057.99 1455.77 1057.99 1460.26 Q1057.99 1462.39 1057.18 1464.31 Q1056.39 1466.2 1054.29 1468.8 Q1053.71 1469.47 1050.61 1472.69 Q1047.5 1475.88 1041.86 1481.64 Z" fill="#000000" fill-rule="evenodd" fill-opacity="1" /><path clip-path="url(#clip610)" d="M1465.91 1466.95 Q1469.27 1467.66 1471.14 1469.93 Q1473.04 1472.2 1473.04 1475.53 Q1473.04 1480.65 1469.52 1483.45 Q1466 1486.25 1459.52 1486.25 Q1457.35 1486.25 1455.03 1485.81 Q1452.74 1485.39 1450.29 1484.54 L1450.29 1480.02 Q1452.23 1481.16 1454.55 1481.74 Q1456.86 1482.32 1459.38 1482.32 Q1463.78 1482.32 1466.07 1480.58 Q1468.39 1478.84 1468.39 1475.53 Q1468.39 1472.48 1466.24 1470.77 Q1464.11 1469.03 1460.29 1469.03 L1456.26 1469.03 L1456.26 1465.19 L1460.47 1465.19 Q1463.92 1465.19 1465.75 1463.82 Q1467.58 1462.43 1467.58 1459.84 Q1467.58 1457.18 1465.68 1455.77 Q1463.81 1454.33 1460.29 1454.33 Q1458.37 1454.33 1456.17 1454.75 Q1453.97 1455.16 1451.33 1456.04 L1451.33 1451.88 Q1453.99 1451.14 1456.31 1450.77 Q1458.64 1450.39 1460.7 1450.39 Q1466.03 1450.39 1469.13 1452.83 Q1472.23 1455.23 1472.23 1459.35 Q1472.23 1462.22 1470.59 1464.21 Q1468.94 1466.18 1465.91 1466.95 Z" fill="#000000" fill-rule="evenodd" fill-opacity="1" /><path clip-path="url(#clip610)" d="M1879.13 1455.09 L1867.33 1473.54 L1879.13 1473.54 L1879.13 1455.09 M1877.91 1451.02 L1883.79 1451.02 L1883.79 1473.54 L1888.72 1473.54 L1888.72 1477.43 L1883.79 1477.43 L1883.79 1485.58 L1879.13 1485.58 L1879.13 1477.43 L1863.53 1477.43 L1863.53 1472.92 L1877.91 1451.02 Z" fill="#000000" fill-rule="evenodd" fill-opacity="1" /><path clip-path="url(#clip610)" d="M2280.86 1451.02 L2299.22 1451.02 L2299.22 1454.96 L2285.15 1454.96 L2285.15 1463.43 Q2286.17 1463.08 2287.18 1462.92 Q2288.2 1462.73 2289.22 1462.73 Q2295.01 1462.73 2298.39 1465.9 Q2301.77 1469.08 2301.77 1474.49 Q2301.77 1480.07 2298.3 1483.17 Q2294.82 1486.25 2288.5 1486.25 Q2286.33 1486.25 2284.06 1485.88 Q2281.81 1485.51 2279.41 1484.77 L2279.41 1480.07 Q2281.49 1481.2 2283.71 1481.76 Q2285.93 1482.32 2288.41 1482.32 Q2292.42 1482.32 2294.75 1480.21 Q2297.09 1478.1 2297.09 1474.49 Q2297.09 1470.88 2294.75 1468.77 Q2292.42 1466.67 2288.41 1466.67 Q2286.54 1466.67 2284.66 1467.08 Q2282.81 1467.5 2280.86 1468.38 L2280.86 1451.02 Z" fill="#000000" fill-rule="evenodd" fill-opacity="1" /><path clip-path="url(#clip610)" d="M1202.74 1522.27 L1202.74 1532.4 L1214.81 1532.4 L1214.81 1536.95 L1202.74 1536.95 L1202.74 1556.3 Q1202.74 1560.66 1203.92 1561.9 Q1205.13 1563.14 1208.79 1563.14 L1214.81 1563.14 L1214.81 1568.04 L1208.79 1568.04 Q1202.01 1568.04 1199.43 1565.53 Q1196.86 1562.98 1196.86 1556.3 L1196.86 1536.95 L1192.56 1536.95 L1192.56 1532.4 L1196.86 1532.4 L1196.86 1522.27 L1202.74 1522.27 Z" fill="#000000" fill-rule="evenodd" fill-opacity="1" /><path clip-path="url(#clip610)" d="M1242.69 1518.52 L1256.18 1518.52 L1256.18 1523.07 L1248.55 1523.07 L1248.55 1572.09 L1256.18 1572.09 L1256.18 1576.64 L1242.69 1576.64 L1242.69 1518.52 Z" fill="#000000" fill-rule="evenodd" fill-opacity="1" /><path clip-path="url(#clip610)" d="M1291.39 1533.45 L1291.39 1538.98 Q1288.9 1537.71 1286.23 1537.07 Q1283.56 1536.44 1280.69 1536.44 Q1276.33 1536.44 1274.14 1537.77 Q1271.97 1539.11 1271.97 1541.79 Q1271.97 1543.82 1273.53 1545 Q1275.09 1546.15 1279.8 1547.2 L1281.81 1547.64 Q1288.04 1548.98 1290.65 1551.43 Q1293.3 1553.85 1293.3 1558.21 Q1293.3 1563.17 1289.35 1566.07 Q1285.44 1568.97 1278.56 1568.97 Q1275.7 1568.97 1272.58 1568.39 Q1269.49 1567.85 1266.05 1566.74 L1266.05 1560.69 Q1269.3 1562.38 1272.45 1563.24 Q1275.6 1564.07 1278.69 1564.07 Q1282.83 1564.07 1285.05 1562.66 Q1287.28 1561.23 1287.28 1558.65 Q1287.28 1556.27 1285.66 1554.99 Q1284.07 1553.72 1278.62 1552.54 L1276.59 1552.07 Q1271.14 1550.92 1268.73 1548.56 Q1266.31 1546.18 1266.31 1542.04 Q1266.31 1537.01 1269.87 1534.27 Q1273.44 1531.54 1279.99 1531.54 Q1283.24 1531.54 1286.1 1532.01 Q1288.97 1532.49 1291.39 1533.45 Z" fill="#000000" fill-rule="evenodd" fill-opacity="1" /><path clip-path="url(#clip610)" d="M1316.31 1518.52 L1316.31 1576.64 L1302.81 1576.64 L1302.81 1572.09 L1310.42 1572.09 L1310.42 1523.07 L1302.81 1523.07 L1302.81 1518.52 L1316.31 1518.52 Z" fill="#000000" fill-rule="evenodd" fill-opacity="1" /><polyline clip-path="url(#clip612)" style="stroke:#000000; stroke-linecap:butt; stroke-linejoin:round; stroke-width:2; stroke-opacity:0.1; fill:none" points="
  156.112,1384.24 2352.76,1384.24 
  "/>
<polyline clip-path="url(#clip612)" style="stroke:#000000; stroke-linecap:butt; stroke-linejoin:round; stroke-width:2; stroke-opacity:0.1; fill:none" points="
  156.112,1099.28 2352.76,1099.28 
  "/>
<polyline clip-path="url(#clip612)" style="stroke:#000000; stroke-linecap:butt; stroke-linejoin:round; stroke-width:2; stroke-opacity:0.1; fill:none" points="
  156.112,814.322 2352.76,814.322 
  "/>
<polyline clip-path="url(#clip612)" style="stroke:#000000; stroke-linecap:butt; stroke-linejoin:round; stroke-width:2; stroke-opacity:0.1; fill:none" points="
  156.112,529.363 2352.76,529.363 
  "/>
<polyline clip-path="url(#clip612)" style="stroke:#000000; stroke-linecap:butt; stroke-linejoin:round; stroke-width:2; stroke-opacity:0.1; fill:none" points="
  156.112,244.405 2352.76,244.405 
  "/>
<polyline clip-path="url(#clip610)" style="stroke:#000000; stroke-linecap:butt; stroke-linejoin:round; stroke-width:4; stroke-opacity:1; fill:none" points="
  156.112,1423.18 156.112,47.2441 
  "/>
<polyline clip-path="url(#clip610)" style="stroke:#000000; stroke-linecap:butt; stroke-linejoin:round; stroke-width:4; stroke-opacity:1; fill:none" points="
  156.112,1384.24 175.01,1384.24 
  "/>
<polyline clip-path="url(#clip610)" style="stroke:#000000; stroke-linecap:butt; stroke-linejoin:round; stroke-width:4; stroke-opacity:1; fill:none" points="
  156.112,1099.28 175.01,1099.28 
  "/>
<polyline clip-path="url(#clip610)" style="stroke:#000000; stroke-linecap:butt; stroke-linejoin:round; stroke-width:4; stroke-opacity:1; fill:none" points="
  156.112,814.322 175.01,814.322 
  "/>
<polyline clip-path="url(#clip610)" style="stroke:#000000; stroke-linecap:butt; stroke-linejoin:round; stroke-width:4; stroke-opacity:1; fill:none" points="
  156.112,529.363 175.01,529.363 
  "/>
<polyline clip-path="url(#clip610)" style="stroke:#000000; stroke-linecap:butt; stroke-linejoin:round; stroke-width:4; stroke-opacity:1; fill:none" points="
  156.112,244.405 175.01,244.405 
  "/>
<path clip-path="url(#clip610)" d="M62.9365 1370.04 Q59.3254 1370.04 57.4967 1373.6 Q55.6912 1377.14 55.6912 1384.27 Q55.6912 1391.38 57.4967 1394.94 Q59.3254 1398.49 62.9365 1398.49 Q66.5707 1398.49 68.3763 1394.94 Q70.205 1391.38 70.205 1384.27 Q70.205 1377.14 68.3763 1373.6 Q66.5707 1370.04 62.9365 1370.04 M62.9365 1366.33 Q68.7467 1366.33 71.8022 1370.94 Q74.8809 1375.52 74.8809 1384.27 Q74.8809 1393 71.8022 1397.61 Q68.7467 1402.19 62.9365 1402.19 Q57.1264 1402.19 54.0477 1397.61 Q50.9921 1393 50.9921 1384.27 Q50.9921 1375.52 54.0477 1370.94 Q57.1264 1366.33 62.9365 1366.33 Z" fill="#000000" fill-rule="evenodd" fill-opacity="1" /><path clip-path="url(#clip610)" d="M83.0984 1395.64 L87.9827 1395.64 L87.9827 1401.52 L83.0984 1401.52 L83.0984 1395.64 Z" fill="#000000" fill-rule="evenodd" fill-opacity="1" /><path clip-path="url(#clip610)" d="M108.168 1370.04 Q104.557 1370.04 102.728 1373.6 Q100.922 1377.14 100.922 1384.27 Q100.922 1391.38 102.728 1394.94 Q104.557 1398.49 108.168 1398.49 Q111.802 1398.49 113.608 1394.94 Q115.436 1391.38 115.436 1384.27 Q115.436 1377.14 113.608 1373.6 Q111.802 1370.04 108.168 1370.04 M108.168 1366.33 Q113.978 1366.33 117.033 1370.94 Q120.112 1375.52 120.112 1384.27 Q120.112 1393 117.033 1397.61 Q113.978 1402.19 108.168 1402.19 Q102.358 1402.19 99.2789 1397.61 Q96.2234 1393 96.2234 1384.27 Q96.2234 1375.52 99.2789 1370.94 Q102.358 1366.33 108.168 1366.33 Z" fill="#000000" fill-rule="evenodd" fill-opacity="1" /><path clip-path="url(#clip610)" d="M63.9319 1085.08 Q60.3208 1085.08 58.4921 1088.64 Q56.6865 1092.19 56.6865 1099.31 Q56.6865 1106.42 58.4921 1109.99 Q60.3208 1113.53 63.9319 1113.53 Q67.5661 1113.53 69.3717 1109.99 Q71.2004 1106.42 71.2004 1099.31 Q71.2004 1092.19 69.3717 1088.64 Q67.5661 1085.08 63.9319 1085.08 M63.9319 1081.37 Q69.742 1081.37 72.7976 1085.98 Q75.8763 1090.56 75.8763 1099.31 Q75.8763 1108.04 72.7976 1112.65 Q69.742 1117.23 63.9319 1117.23 Q58.1217 1117.23 55.043 1112.65 Q51.9875 1108.04 51.9875 1099.31 Q51.9875 1090.56 55.043 1085.98 Q58.1217 1081.37 63.9319 1081.37 Z" fill="#000000" fill-rule="evenodd" fill-opacity="1" /><path clip-path="url(#clip610)" d="M84.0938 1110.68 L88.978 1110.68 L88.978 1116.56 L84.0938 1116.56 L84.0938 1110.68 Z" fill="#000000" fill-rule="evenodd" fill-opacity="1" /><path clip-path="url(#clip610)" d="M99.2095 1082 L117.566 1082 L117.566 1085.94 L103.492 1085.94 L103.492 1094.41 Q104.51 1094.06 105.529 1093.9 Q106.547 1093.71 107.566 1093.71 Q113.353 1093.71 116.733 1096.88 Q120.112 1100.06 120.112 1105.47 Q120.112 1111.05 116.64 1114.15 Q113.168 1117.23 106.848 1117.23 Q104.672 1117.23 102.404 1116.86 Q100.159 1116.49 97.7511 1115.75 L97.7511 1111.05 Q99.8345 1112.18 102.057 1112.74 Q104.279 1113.3 106.756 1113.3 Q110.76 1113.3 113.098 1111.19 Q115.436 1109.08 115.436 1105.47 Q115.436 1101.86 113.098 1099.75 Q110.76 1097.65 106.756 1097.65 Q104.881 1097.65 103.006 1098.06 Q101.154 1098.48 99.2095 1099.36 L99.2095 1082 Z" fill="#000000" fill-rule="evenodd" fill-opacity="1" /><path clip-path="url(#clip610)" d="M53.7467 827.666 L61.3856 827.666 L61.3856 801.301 L53.0754 802.968 L53.0754 798.708 L61.3393 797.042 L66.0152 797.042 L66.0152 827.666 L73.654 827.666 L73.654 831.602 L53.7467 831.602 L53.7467 827.666 Z" fill="#000000" fill-rule="evenodd" fill-opacity="1" /><path clip-path="url(#clip610)" d="M83.0984 825.722 L87.9827 825.722 L87.9827 831.602 L83.0984 831.602 L83.0984 825.722 Z" fill="#000000" fill-rule="evenodd" fill-opacity="1" /><path clip-path="url(#clip610)" d="M108.168 800.12 Q104.557 800.12 102.728 803.685 Q100.922 807.227 100.922 814.356 Q100.922 821.463 102.728 825.028 Q104.557 828.569 108.168 828.569 Q111.802 828.569 113.608 825.028 Q115.436 821.463 115.436 814.356 Q115.436 807.227 113.608 803.685 Q111.802 800.12 108.168 800.12 M108.168 796.417 Q113.978 796.417 117.033 801.023 Q120.112 805.606 120.112 814.356 Q120.112 823.083 117.033 827.69 Q113.978 832.273 108.168 832.273 Q102.358 832.273 99.2789 827.69 Q96.2234 823.083 96.2234 814.356 Q96.2234 805.606 99.2789 801.023 Q102.358 796.417 108.168 796.417 Z" fill="#000000" fill-rule="evenodd" fill-opacity="1" /><path clip-path="url(#clip610)" d="M54.7421 542.708 L62.381 542.708 L62.381 516.343 L54.0708 518.009 L54.0708 513.75 L62.3347 512.083 L67.0106 512.083 L67.0106 542.708 L74.6494 542.708 L74.6494 546.643 L54.7421 546.643 L54.7421 542.708 Z" fill="#000000" fill-rule="evenodd" fill-opacity="1" /><path clip-path="url(#clip610)" d="M84.0938 540.764 L88.978 540.764 L88.978 546.643 L84.0938 546.643 L84.0938 540.764 Z" fill="#000000" fill-rule="evenodd" fill-opacity="1" /><path clip-path="url(#clip610)" d="M99.2095 512.083 L117.566 512.083 L117.566 516.019 L103.492 516.019 L103.492 524.491 Q104.51 524.143 105.529 523.981 Q106.547 523.796 107.566 523.796 Q113.353 523.796 116.733 526.968 Q120.112 530.139 120.112 535.555 Q120.112 541.134 116.64 544.236 Q113.168 547.315 106.848 547.315 Q104.672 547.315 102.404 546.944 Q100.159 546.574 97.7511 545.833 L97.7511 541.134 Q99.8345 542.268 102.057 542.824 Q104.279 543.379 106.756 543.379 Q110.76 543.379 113.098 541.273 Q115.436 539.167 115.436 535.555 Q115.436 531.944 113.098 529.838 Q110.76 527.731 106.756 527.731 Q104.881 527.731 103.006 528.148 Q101.154 528.565 99.2095 529.444 L99.2095 512.083 Z" fill="#000000" fill-rule="evenodd" fill-opacity="1" /><path clip-path="url(#clip610)" d="M56.9643 257.75 L73.2837 257.75 L73.2837 261.685 L51.3393 261.685 L51.3393 257.75 Q54.0014 254.995 58.5847 250.366 Q63.1911 245.713 64.3717 244.37 Q66.617 241.847 67.4967 240.111 Q68.3994 238.352 68.3994 236.662 Q68.3994 233.907 66.455 232.171 Q64.5337 230.435 61.4319 230.435 Q59.2328 230.435 56.7791 231.199 Q54.3486 231.963 51.5708 233.514 L51.5708 228.792 Q54.3949 227.657 56.8486 227.079 Q59.3023 226.5 61.3393 226.5 Q66.7096 226.5 69.9041 229.185 Q73.0985 231.87 73.0985 236.361 Q73.0985 238.491 72.2883 240.412 Q71.5013 242.31 69.3948 244.903 Q68.8161 245.574 65.7143 248.792 Q62.6124 251.986 56.9643 257.75 Z" fill="#000000" fill-rule="evenodd" fill-opacity="1" /><path clip-path="url(#clip610)" d="M83.0984 255.805 L87.9827 255.805 L87.9827 261.685 L83.0984 261.685 L83.0984 255.805 Z" fill="#000000" fill-rule="evenodd" fill-opacity="1" /><path clip-path="url(#clip610)" d="M108.168 230.204 Q104.557 230.204 102.728 233.769 Q100.922 237.31 100.922 244.44 Q100.922 251.546 102.728 255.111 Q104.557 258.653 108.168 258.653 Q111.802 258.653 113.608 255.111 Q115.436 251.546 115.436 244.44 Q115.436 237.31 113.608 233.769 Q111.802 230.204 108.168 230.204 M108.168 226.5 Q113.978 226.5 117.033 231.107 Q120.112 235.69 120.112 244.44 Q120.112 253.167 117.033 257.773 Q113.978 262.356 108.168 262.356 Q102.358 262.356 99.2789 257.773 Q96.2234 253.167 96.2234 244.44 Q96.2234 235.69 99.2789 231.107 Q102.358 226.5 108.168 226.5 Z" fill="#000000" fill-rule="evenodd" fill-opacity="1" /><polyline clip-path="url(#clip612)" style="stroke:#009af9; stroke-linecap:butt; stroke-linejoin:round; stroke-width:4; stroke-opacity:1; fill:none" points="
  218.281,1099.28 259.727,1034.85 301.174,974.837 342.62,919.973 384.066,871.694 425.512,832.294 466.958,803.732 508.404,785.484 549.85,774.58 591.296,768.194 
  632.742,764.309 674.188,761.854 715.635,760.117 757.081,758.787 798.527,757.662 839.973,756.62 881.419,755.631 922.865,754.649 964.311,753.654 1005.76,752.643 
  1047.2,751.612 1088.65,750.561 1130.1,749.541 1171.54,748.498 1212.99,747.382 1254.43,746.176 1295.88,744.905 1337.33,743.629 1378.77,742.439 1420.22,741.272 
  1461.66,740.065 1503.11,738.82 1544.56,737.553 1586,736.3 1627.45,735.058 1668.9,733.8 1710.34,732.516 1751.79,731.21 1793.23,729.902 1834.68,728.628 
  1876.13,727.384 1917.57,726.142 1959.02,724.892 2000.46,723.632 2041.91,722.37 2083.36,721.127 2124.8,719.922 2166.25,718.732 2207.69,717.551 2249.14,716.383 
  2290.59,715.23 
  "/>
<polyline clip-path="url(#clip612)" style="stroke:#e26f46; stroke-linecap:butt; stroke-linejoin:round; stroke-width:4; stroke-opacity:1; fill:none" points="
  218.281,1384.24 259.727,1343.41 301.174,1302.67 342.62,1262.55 384.066,1223.32 425.512,1185.15 466.958,1149.07 508.404,1116.17 549.85,1086.07 591.296,1057.82 
  632.742,1030.57 674.188,1003.84 715.635,977.298 757.081,950.831 798.527,924.366 839.973,897.875 881.419,871.376 922.865,844.88 964.311,818.408 1005.76,791.989 
  1047.2,765.652 1088.65,739.422 1130.1,713.352 1171.54,687.437 1212.99,661.673 1254.43,636.071 1295.88,610.661 1337.33,585.488 1378.77,560.613 1420.22,536.012 
  1461.66,511.665 1503.11,487.581 1544.56,463.773 1586,440.266 1627.45,417.062 1668.9,394.149 1710.34,371.525 1751.79,349.192 1793.23,327.16 1834.68,305.447 
  1876.13,284.05 1917.57,262.953 1959.02,242.148 2000.46,221.632 2041.91,201.405 2083.36,181.476 2124.8,161.851 2166.25,142.514 2207.69,123.459 2249.14,104.684 
  2290.59,86.1857 
  "/>
<path clip-path="url(#clip610)" d="
M1582.73 248.629 L2279.53 248.629 L2279.53 93.1086 L1582.73 93.1086  Z
  " fill="#ffffff" fill-rule="evenodd" fill-opacity="1"/>
<polyline clip-path="url(#clip610)" style="stroke:#000000; stroke-linecap:butt; stroke-linejoin:round; stroke-width:4; stroke-opacity:1; fill:none" points="
  1582.73,248.629 2279.53,248.629 2279.53,93.1086 1582.73,93.1086 1582.73,248.629 
  "/>
<polyline clip-path="url(#clip610)" style="stroke:#009af9; stroke-linecap:butt; stroke-linejoin:round; stroke-width:4; stroke-opacity:1; fill:none" points="
  1607.14,144.949 1753.58,144.949 
  "/>
<path clip-path="url(#clip610)" d="M1798.34 141.28 Q1799.94 138.409 1802.16 137.044 Q1804.38 135.678 1807.39 135.678 Q1811.44 135.678 1813.64 138.525 Q1815.84 141.349 1815.84 146.581 L1815.84 162.229 L1811.56 162.229 L1811.56 146.719 Q1811.56 142.993 1810.24 141.187 Q1808.92 139.382 1806.21 139.382 Q1802.9 139.382 1800.98 141.581 Q1799.06 143.78 1799.06 147.576 L1799.06 162.229 L1794.77 162.229 L1794.77 146.719 Q1794.77 142.969 1793.45 141.187 Q1792.13 139.382 1789.38 139.382 Q1786.12 139.382 1784.19 141.604 Q1782.27 143.803 1782.27 147.576 L1782.27 162.229 L1777.99 162.229 L1777.99 136.303 L1782.27 136.303 L1782.27 140.331 Q1783.73 137.946 1785.77 136.812 Q1787.81 135.678 1790.61 135.678 Q1793.43 135.678 1795.4 137.113 Q1797.39 138.548 1798.34 141.28 Z" fill="#000000" fill-rule="evenodd" fill-opacity="1" /><path clip-path="url(#clip610)" d="M1836.12 149.196 Q1830.95 149.196 1828.96 150.377 Q1826.97 151.557 1826.97 154.405 Q1826.97 156.673 1828.45 158.016 Q1829.96 159.335 1832.53 159.335 Q1836.07 159.335 1838.2 156.835 Q1840.35 154.312 1840.35 150.145 L1840.35 149.196 L1836.12 149.196 M1844.61 147.437 L1844.61 162.229 L1840.35 162.229 L1840.35 158.293 Q1838.89 160.655 1836.72 161.789 Q1834.54 162.9 1831.39 162.9 Q1827.41 162.9 1825.05 160.678 Q1822.71 158.432 1822.71 154.682 Q1822.71 150.307 1825.63 148.085 Q1828.57 145.863 1834.38 145.863 L1840.35 145.863 L1840.35 145.446 Q1840.35 142.507 1838.41 140.909 Q1836.49 139.289 1832.99 139.289 Q1830.77 139.289 1828.66 139.821 Q1826.56 140.354 1824.61 141.419 L1824.61 137.483 Q1826.95 136.581 1829.15 136.141 Q1831.35 135.678 1833.43 135.678 Q1839.06 135.678 1841.83 138.594 Q1844.61 141.511 1844.61 147.437 Z" fill="#000000" fill-rule="evenodd" fill-opacity="1" /><path clip-path="url(#clip610)" d="M1869.91 137.067 L1869.91 141.094 Q1868.11 140.169 1866.16 139.706 Q1864.22 139.243 1862.13 139.243 Q1858.96 139.243 1857.37 140.215 Q1855.79 141.187 1855.79 143.131 Q1855.79 144.613 1856.93 145.469 Q1858.06 146.303 1861.49 147.067 L1862.94 147.391 Q1867.48 148.363 1869.38 150.145 Q1871.3 151.905 1871.3 155.076 Q1871.3 158.687 1868.43 160.793 Q1865.58 162.9 1860.58 162.9 Q1858.5 162.9 1856.23 162.483 Q1853.99 162.09 1851.49 161.28 L1851.49 156.881 Q1853.85 158.108 1856.14 158.733 Q1858.43 159.335 1860.68 159.335 Q1863.69 159.335 1865.31 158.317 Q1866.93 157.275 1866.93 155.4 Q1866.93 153.664 1865.75 152.738 Q1864.59 151.812 1860.63 150.956 L1859.15 150.608 Q1855.19 149.775 1853.43 148.062 Q1851.67 146.326 1851.67 143.317 Q1851.67 139.659 1854.26 137.669 Q1856.86 135.678 1861.62 135.678 Q1863.99 135.678 1866.07 136.025 Q1868.15 136.372 1869.91 137.067 Z" fill="#000000" fill-rule="evenodd" fill-opacity="1" /><path clip-path="url(#clip610)" d="M1894.61 137.067 L1894.61 141.094 Q1892.81 140.169 1890.86 139.706 Q1888.92 139.243 1886.83 139.243 Q1883.66 139.243 1882.06 140.215 Q1880.49 141.187 1880.49 143.131 Q1880.49 144.613 1881.62 145.469 Q1882.76 146.303 1886.18 147.067 L1887.64 147.391 Q1892.18 148.363 1894.08 150.145 Q1896 151.905 1896 155.076 Q1896 158.687 1893.13 160.793 Q1890.28 162.9 1885.28 162.9 Q1883.2 162.9 1880.93 162.483 Q1878.68 162.09 1876.19 161.28 L1876.19 156.881 Q1878.55 158.108 1880.84 158.733 Q1883.13 159.335 1885.37 159.335 Q1888.38 159.335 1890 158.317 Q1891.62 157.275 1891.62 155.4 Q1891.62 153.664 1890.44 152.738 Q1889.29 151.812 1885.33 150.956 L1883.85 150.608 Q1879.89 149.775 1878.13 148.062 Q1876.37 146.326 1876.37 143.317 Q1876.37 139.659 1878.96 137.669 Q1881.56 135.678 1886.32 135.678 Q1888.68 135.678 1890.77 136.025 Q1892.85 136.372 1894.61 137.067 Z" fill="#000000" fill-rule="evenodd" fill-opacity="1" /><path clip-path="url(#clip610)" d="M1903.38 156.349 L1908.27 156.349 L1908.27 162.229 L1903.38 162.229 L1903.38 156.349 Z" fill="#000000" fill-rule="evenodd" fill-opacity="1" /><path clip-path="url(#clip610)" d="M1934.38 137.067 L1934.38 141.094 Q1932.57 140.169 1930.63 139.706 Q1928.68 139.243 1926.6 139.243 Q1923.43 139.243 1921.83 140.215 Q1920.26 141.187 1920.26 143.131 Q1920.26 144.613 1921.39 145.469 Q1922.53 146.303 1925.95 147.067 L1927.41 147.391 Q1931.95 148.363 1933.85 150.145 Q1935.77 151.905 1935.77 155.076 Q1935.77 158.687 1932.9 160.793 Q1930.05 162.9 1925.05 162.9 Q1922.97 162.9 1920.7 162.483 Q1918.45 162.09 1915.95 161.28 L1915.95 156.881 Q1918.31 158.108 1920.61 158.733 Q1922.9 159.335 1925.14 159.335 Q1928.15 159.335 1929.77 158.317 Q1931.39 157.275 1931.39 155.4 Q1931.39 153.664 1930.21 152.738 Q1929.06 151.812 1925.1 150.956 L1923.62 150.608 Q1919.66 149.775 1917.9 148.062 Q1916.14 146.326 1916.14 143.317 Q1916.14 139.659 1918.73 137.669 Q1921.32 135.678 1926.09 135.678 Q1928.45 135.678 1930.54 136.025 Q1932.62 136.372 1934.38 137.067 Z" fill="#000000" fill-rule="evenodd" fill-opacity="1" /><path clip-path="url(#clip610)" d="M1967.85 126.257 Q1964.75 131.581 1963.24 136.789 Q1961.74 141.997 1961.74 147.344 Q1961.74 152.692 1963.24 157.946 Q1964.77 163.178 1967.85 168.479 L1964.15 168.479 Q1960.68 163.039 1958.94 157.784 Q1957.23 152.53 1957.23 147.344 Q1957.23 142.182 1958.94 136.951 Q1960.65 131.72 1964.15 126.257 L1967.85 126.257 Z" fill="#000000" fill-rule="evenodd" fill-opacity="1" /><path clip-path="url(#clip610)" d="M1990.88 143.594 Q1994.24 144.312 1996.11 146.581 Q1998.01 148.849 1998.01 152.182 Q1998.01 157.298 1994.49 160.099 Q1990.98 162.9 1984.49 162.9 Q1982.32 162.9 1980 162.46 Q1977.71 162.043 1975.26 161.187 L1975.26 156.673 Q1977.2 157.807 1979.52 158.386 Q1981.83 158.965 1984.36 158.965 Q1988.75 158.965 1991.05 157.229 Q1993.36 155.493 1993.36 152.182 Q1993.36 149.127 1991.21 147.414 Q1989.08 145.678 1985.26 145.678 L1981.23 145.678 L1981.23 141.835 L1985.44 141.835 Q1988.89 141.835 1990.72 140.469 Q1992.55 139.081 1992.55 136.488 Q1992.55 133.826 1990.65 132.414 Q1988.78 130.979 1985.26 130.979 Q1983.34 130.979 1981.14 131.395 Q1978.94 131.812 1976.3 132.692 L1976.3 128.525 Q1978.96 127.784 1981.28 127.414 Q1983.61 127.044 1985.68 127.044 Q1991 127.044 1994.1 129.474 Q1997.2 131.882 1997.2 136.002 Q1997.2 138.872 1995.56 140.863 Q1993.92 142.831 1990.88 143.594 Z" fill="#000000" fill-rule="evenodd" fill-opacity="1" /><path clip-path="url(#clip610)" d="M2021.05 143.594 Q2024.4 144.312 2026.28 146.581 Q2028.17 148.849 2028.17 152.182 Q2028.17 157.298 2024.66 160.099 Q2021.14 162.9 2014.66 162.9 Q2012.48 162.9 2010.17 162.46 Q2007.87 162.043 2005.42 161.187 L2005.42 156.673 Q2007.36 157.807 2009.68 158.386 Q2011.99 158.965 2014.52 158.965 Q2018.92 158.965 2021.21 157.229 Q2023.52 155.493 2023.52 152.182 Q2023.52 149.127 2021.37 147.414 Q2019.24 145.678 2015.42 145.678 L2011.39 145.678 L2011.39 141.835 L2015.61 141.835 Q2019.05 141.835 2020.88 140.469 Q2022.71 139.081 2022.71 136.488 Q2022.71 133.826 2020.81 132.414 Q2018.94 130.979 2015.42 130.979 Q2013.5 130.979 2011.3 131.395 Q2009.1 131.812 2006.46 132.692 L2006.46 128.525 Q2009.12 127.784 2011.44 127.414 Q2013.78 127.044 2015.84 127.044 Q2021.16 127.044 2024.26 129.474 Q2027.36 131.882 2027.36 136.002 Q2027.36 138.872 2025.72 140.863 Q2024.08 142.831 2021.05 143.594 Z" fill="#000000" fill-rule="evenodd" fill-opacity="1" /><path clip-path="url(#clip610)" d="M2037.09 127.669 L2055.44 127.669 L2055.44 131.604 L2041.37 131.604 L2041.37 140.076 Q2042.39 139.729 2043.41 139.567 Q2044.42 139.382 2045.44 139.382 Q2051.23 139.382 2054.61 142.553 Q2057.99 145.724 2057.99 151.141 Q2057.99 156.719 2054.52 159.821 Q2051.05 162.9 2044.73 162.9 Q2042.55 162.9 2040.28 162.53 Q2038.04 162.159 2035.63 161.418 L2035.63 156.719 Q2037.71 157.854 2039.93 158.409 Q2042.16 158.965 2044.63 158.965 Q2048.64 158.965 2050.98 156.858 Q2053.31 154.752 2053.31 151.141 Q2053.31 147.53 2050.98 145.423 Q2048.64 143.317 2044.63 143.317 Q2042.76 143.317 2040.88 143.733 Q2039.03 144.15 2037.09 145.03 L2037.09 127.669 Z" fill="#000000" fill-rule="evenodd" fill-opacity="1" /><path clip-path="url(#clip610)" d="M2067.25 127.669 L2085.61 127.669 L2085.61 131.604 L2071.53 131.604 L2071.53 140.076 Q2072.55 139.729 2073.57 139.567 Q2074.59 139.382 2075.61 139.382 Q2081.39 139.382 2084.77 142.553 Q2088.15 145.724 2088.15 151.141 Q2088.15 156.719 2084.68 159.821 Q2081.21 162.9 2074.89 162.9 Q2072.71 162.9 2070.44 162.53 Q2068.2 162.159 2065.79 161.418 L2065.79 156.719 Q2067.87 157.854 2070.1 158.409 Q2072.32 158.965 2074.8 158.965 Q2078.8 158.965 2081.14 156.858 Q2083.48 154.752 2083.48 151.141 Q2083.48 147.53 2081.14 145.423 Q2078.8 143.317 2074.8 143.317 Q2072.92 143.317 2071.05 143.733 Q2069.19 144.15 2067.25 145.03 L2067.25 127.669 Z" fill="#000000" fill-rule="evenodd" fill-opacity="1" /><path clip-path="url(#clip610)" d="M2110.21 131.743 L2098.41 150.192 L2110.21 150.192 L2110.21 131.743 M2108.98 127.669 L2114.86 127.669 L2114.86 150.192 L2119.79 150.192 L2119.79 154.081 L2114.86 154.081 L2114.86 162.229 L2110.21 162.229 L2110.21 154.081 L2094.61 154.081 L2094.61 149.567 L2108.98 127.669 Z" fill="#000000" fill-rule="evenodd" fill-opacity="1" /><path clip-path="url(#clip610)" d="M2140.37 131.743 L2128.57 150.192 L2140.37 150.192 L2140.37 131.743 M2139.15 127.669 L2145.03 127.669 L2145.03 150.192 L2149.96 150.192 L2149.96 154.081 L2145.03 154.081 L2145.03 162.229 L2140.37 162.229 L2140.37 154.081 L2124.77 154.081 L2124.77 149.567 L2139.15 127.669 Z" fill="#000000" fill-rule="evenodd" fill-opacity="1" /><path clip-path="url(#clip610)" d="M2171.85 143.594 Q2175.21 144.312 2177.09 146.581 Q2178.98 148.849 2178.98 152.182 Q2178.98 157.298 2175.47 160.099 Q2171.95 162.9 2165.47 162.9 Q2163.29 162.9 2160.98 162.46 Q2158.68 162.043 2156.23 161.187 L2156.23 156.673 Q2158.17 157.807 2160.49 158.386 Q2162.8 158.965 2165.33 158.965 Q2169.73 158.965 2172.02 157.229 Q2174.33 155.493 2174.33 152.182 Q2174.33 149.127 2172.18 147.414 Q2170.05 145.678 2166.23 145.678 L2162.2 145.678 L2162.2 141.835 L2166.41 141.835 Q2169.86 141.835 2171.69 140.469 Q2173.52 139.081 2173.52 136.488 Q2173.52 133.826 2171.62 132.414 Q2169.75 130.979 2166.23 130.979 Q2164.31 130.979 2162.11 131.395 Q2159.91 131.812 2157.27 132.692 L2157.27 128.525 Q2159.93 127.784 2162.25 127.414 Q2164.59 127.044 2166.65 127.044 Q2171.97 127.044 2175.07 129.474 Q2178.17 131.882 2178.17 136.002 Q2178.17 138.872 2176.53 140.863 Q2174.89 142.831 2171.85 143.594 Z" fill="#000000" fill-rule="evenodd" fill-opacity="1" /><path clip-path="url(#clip610)" d="M2191.88 158.293 L2208.2 158.293 L2208.2 162.229 L2186.25 162.229 L2186.25 158.293 Q2188.91 155.539 2193.5 150.909 Q2198.1 146.256 2199.29 144.914 Q2201.53 142.391 2202.41 140.655 Q2203.31 138.895 2203.31 137.206 Q2203.31 134.451 2201.37 132.715 Q2199.45 130.979 2196.35 130.979 Q2194.15 130.979 2191.69 131.743 Q2189.26 132.507 2186.48 134.057 L2186.48 129.335 Q2189.31 128.201 2191.76 127.622 Q2194.22 127.044 2196.25 127.044 Q2201.62 127.044 2204.82 129.729 Q2208.01 132.414 2208.01 136.905 Q2208.01 139.034 2207.2 140.956 Q2206.41 142.854 2204.31 145.446 Q2203.73 146.118 2200.63 149.335 Q2197.53 152.53 2191.88 158.293 Z" fill="#000000" fill-rule="evenodd" fill-opacity="1" /><path clip-path="url(#clip610)" d="M2216.74 126.257 L2220.44 126.257 Q2223.91 131.72 2225.63 136.951 Q2227.36 142.182 2227.36 147.344 Q2227.36 152.53 2225.63 157.784 Q2223.91 163.039 2220.44 168.479 L2216.74 168.479 Q2219.82 163.178 2221.32 157.946 Q2222.85 152.692 2222.85 147.344 Q2222.85 141.997 2221.32 136.789 Q2219.82 131.581 2216.74 126.257 Z" fill="#000000" fill-rule="evenodd" fill-opacity="1" /><polyline clip-path="url(#clip610)" style="stroke:#e26f46; stroke-linecap:butt; stroke-linejoin:round; stroke-width:4; stroke-opacity:1; fill:none" points="
  1607.14,196.789 1753.58,196.789 
  "/>
<path clip-path="url(#clip610)" d="M1798.34 193.12 Q1799.94 190.249 1802.16 188.884 Q1804.38 187.518 1807.39 187.518 Q1811.44 187.518 1813.64 190.365 Q1815.84 193.189 1815.84 198.421 L1815.84 214.069 L1811.56 214.069 L1811.56 198.559 Q1811.56 194.833 1810.24 193.027 Q1808.92 191.222 1806.21 191.222 Q1802.9 191.222 1800.98 193.421 Q1799.06 195.62 1799.06 199.416 L1799.06 214.069 L1794.77 214.069 L1794.77 198.559 Q1794.77 194.809 1793.45 193.027 Q1792.13 191.222 1789.38 191.222 Q1786.12 191.222 1784.19 193.444 Q1782.27 195.643 1782.27 199.416 L1782.27 214.069 L1777.99 214.069 L1777.99 188.143 L1782.27 188.143 L1782.27 192.171 Q1783.73 189.786 1785.77 188.652 Q1787.81 187.518 1790.61 187.518 Q1793.43 187.518 1795.4 188.953 Q1797.39 190.388 1798.34 193.12 Z" fill="#000000" fill-rule="evenodd" fill-opacity="1" /><path clip-path="url(#clip610)" d="M1836.12 201.036 Q1830.95 201.036 1828.96 202.217 Q1826.97 203.397 1826.97 206.245 Q1826.97 208.513 1828.45 209.856 Q1829.96 211.175 1832.53 211.175 Q1836.07 211.175 1838.2 208.675 Q1840.35 206.152 1840.35 201.985 L1840.35 201.036 L1836.12 201.036 M1844.61 199.277 L1844.61 214.069 L1840.35 214.069 L1840.35 210.133 Q1838.89 212.495 1836.72 213.629 Q1834.54 214.74 1831.39 214.74 Q1827.41 214.74 1825.05 212.518 Q1822.71 210.272 1822.71 206.522 Q1822.71 202.147 1825.63 199.925 Q1828.57 197.703 1834.38 197.703 L1840.35 197.703 L1840.35 197.286 Q1840.35 194.347 1838.41 192.749 Q1836.49 191.129 1832.99 191.129 Q1830.77 191.129 1828.66 191.661 Q1826.56 192.194 1824.61 193.259 L1824.61 189.323 Q1826.95 188.421 1829.15 187.981 Q1831.35 187.518 1833.43 187.518 Q1839.06 187.518 1841.83 190.434 Q1844.61 193.351 1844.61 199.277 Z" fill="#000000" fill-rule="evenodd" fill-opacity="1" /><path clip-path="url(#clip610)" d="M1869.91 188.907 L1869.91 192.934 Q1868.11 192.009 1866.16 191.546 Q1864.22 191.083 1862.13 191.083 Q1858.96 191.083 1857.37 192.055 Q1855.79 193.027 1855.79 194.971 Q1855.79 196.453 1856.93 197.309 Q1858.06 198.143 1861.49 198.907 L1862.94 199.231 Q1867.48 200.203 1869.38 201.985 Q1871.3 203.745 1871.3 206.916 Q1871.3 210.527 1868.43 212.633 Q1865.58 214.74 1860.58 214.74 Q1858.5 214.74 1856.23 214.323 Q1853.99 213.93 1851.49 213.12 L1851.49 208.721 Q1853.85 209.948 1856.14 210.573 Q1858.43 211.175 1860.68 211.175 Q1863.69 211.175 1865.31 210.157 Q1866.93 209.115 1866.93 207.24 Q1866.93 205.504 1865.75 204.578 Q1864.59 203.652 1860.63 202.796 L1859.15 202.448 Q1855.19 201.615 1853.43 199.902 Q1851.67 198.166 1851.67 195.157 Q1851.67 191.499 1854.26 189.509 Q1856.86 187.518 1861.62 187.518 Q1863.99 187.518 1866.07 187.865 Q1868.15 188.212 1869.91 188.907 Z" fill="#000000" fill-rule="evenodd" fill-opacity="1" /><path clip-path="url(#clip610)" d="M1894.61 188.907 L1894.61 192.934 Q1892.81 192.009 1890.86 191.546 Q1888.92 191.083 1886.83 191.083 Q1883.66 191.083 1882.06 192.055 Q1880.49 193.027 1880.49 194.971 Q1880.49 196.453 1881.62 197.309 Q1882.76 198.143 1886.18 198.907 L1887.64 199.231 Q1892.18 200.203 1894.08 201.985 Q1896 203.745 1896 206.916 Q1896 210.527 1893.13 212.633 Q1890.28 214.74 1885.28 214.74 Q1883.2 214.74 1880.93 214.323 Q1878.68 213.93 1876.19 213.12 L1876.19 208.721 Q1878.55 209.948 1880.84 210.573 Q1883.13 211.175 1885.37 211.175 Q1888.38 211.175 1890 210.157 Q1891.62 209.115 1891.62 207.24 Q1891.62 205.504 1890.44 204.578 Q1889.29 203.652 1885.33 202.796 L1883.85 202.448 Q1879.89 201.615 1878.13 199.902 Q1876.37 198.166 1876.37 195.157 Q1876.37 191.499 1878.96 189.509 Q1881.56 187.518 1886.32 187.518 Q1888.68 187.518 1890.77 187.865 Q1892.85 188.212 1894.61 188.907 Z" fill="#000000" fill-rule="evenodd" fill-opacity="1" /><path clip-path="url(#clip610)" d="M1903.38 208.189 L1908.27 208.189 L1908.27 214.069 L1903.38 214.069 L1903.38 208.189 Z" fill="#000000" fill-rule="evenodd" fill-opacity="1" /><path clip-path="url(#clip610)" d="M1914.8 188.143 L1919.31 188.143 L1927.41 209.902 L1935.51 188.143 L1940.03 188.143 L1930.31 214.069 L1924.52 214.069 L1914.8 188.143 Z" fill="#000000" fill-rule="evenodd" fill-opacity="1" /><path clip-path="url(#clip610)" d="M1971.21 178.097 Q1968.11 183.421 1966.6 188.629 Q1965.1 193.837 1965.1 199.184 Q1965.1 204.532 1966.6 209.786 Q1968.13 215.018 1971.21 220.319 L1967.5 220.319 Q1964.03 214.879 1962.3 209.624 Q1960.58 204.37 1960.58 199.184 Q1960.58 194.022 1962.3 188.791 Q1964.01 183.56 1967.5 178.097 L1971.21 178.097 Z" fill="#000000" fill-rule="evenodd" fill-opacity="1" /><path clip-path="url(#clip610)" d="M1994.24 195.434 Q1997.6 196.152 1999.47 198.421 Q2001.37 200.689 2001.37 204.022 Q2001.37 209.138 1997.85 211.939 Q1994.33 214.74 1987.85 214.74 Q1985.68 214.74 1983.36 214.3 Q1981.07 213.883 1978.62 213.027 L1978.62 208.513 Q1980.56 209.647 1982.87 210.226 Q1985.19 210.805 1987.71 210.805 Q1992.11 210.805 1994.4 209.069 Q1996.72 207.333 1996.72 204.022 Q1996.72 200.967 1994.56 199.254 Q1992.43 197.518 1988.61 197.518 L1984.59 197.518 L1984.59 193.675 L1988.8 193.675 Q1992.25 193.675 1994.08 192.309 Q1995.91 190.921 1995.91 188.328 Q1995.91 185.666 1994.01 184.254 Q1992.13 182.819 1988.61 182.819 Q1986.69 182.819 1984.49 183.235 Q1982.3 183.652 1979.66 184.532 L1979.66 180.365 Q1982.32 179.624 1984.63 179.254 Q1986.97 178.884 1989.03 178.884 Q1994.36 178.884 1997.46 181.314 Q2000.56 183.722 2000.56 187.842 Q2000.56 190.712 1998.92 192.703 Q1997.27 194.671 1994.24 195.434 Z" fill="#000000" fill-rule="evenodd" fill-opacity="1" /><path clip-path="url(#clip610)" d="M2024.4 195.434 Q2027.76 196.152 2029.63 198.421 Q2031.53 200.689 2031.53 204.022 Q2031.53 209.138 2028.01 211.939 Q2024.49 214.74 2018.01 214.74 Q2015.84 214.74 2013.52 214.3 Q2011.23 213.883 2008.78 213.027 L2008.78 208.513 Q2010.72 209.647 2013.04 210.226 Q2015.35 210.805 2017.87 210.805 Q2022.27 210.805 2024.56 209.069 Q2026.88 207.333 2026.88 204.022 Q2026.88 200.967 2024.73 199.254 Q2022.6 197.518 2018.78 197.518 L2014.75 197.518 L2014.75 193.675 L2018.96 193.675 Q2022.41 193.675 2024.24 192.309 Q2026.07 190.921 2026.07 188.328 Q2026.07 185.666 2024.17 184.254 Q2022.3 182.819 2018.78 182.819 Q2016.86 182.819 2014.66 183.235 Q2012.46 183.652 2009.82 184.532 L2009.82 180.365 Q2012.48 179.624 2014.8 179.254 Q2017.13 178.884 2019.19 178.884 Q2024.52 178.884 2027.62 181.314 Q2030.72 183.722 2030.72 187.842 Q2030.72 190.712 2029.08 192.703 Q2027.43 194.671 2024.4 195.434 Z" fill="#000000" fill-rule="evenodd" fill-opacity="1" /><path clip-path="url(#clip610)" d="M2040.44 179.509 L2058.8 179.509 L2058.8 183.444 L2044.73 183.444 L2044.73 191.916 Q2045.74 191.569 2046.76 191.407 Q2047.78 191.222 2048.8 191.222 Q2054.59 191.222 2057.97 194.393 Q2061.35 197.564 2061.35 202.981 Q2061.35 208.559 2057.87 211.661 Q2054.4 214.74 2048.08 214.74 Q2045.91 214.74 2043.64 214.37 Q2041.39 213.999 2038.99 213.258 L2038.99 208.559 Q2041.07 209.694 2043.29 210.249 Q2045.51 210.805 2047.99 210.805 Q2051.99 210.805 2054.33 208.698 Q2056.67 206.592 2056.67 202.981 Q2056.67 199.37 2054.33 197.263 Q2051.99 195.157 2047.99 195.157 Q2046.11 195.157 2044.24 195.573 Q2042.39 195.99 2040.44 196.87 L2040.44 179.509 Z" fill="#000000" fill-rule="evenodd" fill-opacity="1" /><path clip-path="url(#clip610)" d="M2070.61 179.509 L2088.96 179.509 L2088.96 183.444 L2074.89 183.444 L2074.89 191.916 Q2075.91 191.569 2076.92 191.407 Q2077.94 191.222 2078.96 191.222 Q2084.75 191.222 2088.13 194.393 Q2091.51 197.564 2091.51 202.981 Q2091.51 208.559 2088.04 211.661 Q2084.56 214.74 2078.24 214.74 Q2076.07 214.74 2073.8 214.37 Q2071.55 213.999 2069.15 213.258 L2069.15 208.559 Q2071.23 209.694 2073.45 210.249 Q2075.67 210.805 2078.15 210.805 Q2082.16 210.805 2084.49 208.698 Q2086.83 206.592 2086.83 202.981 Q2086.83 199.37 2084.49 197.263 Q2082.16 195.157 2078.15 195.157 Q2076.28 195.157 2074.4 195.573 Q2072.55 195.99 2070.61 196.87 L2070.61 179.509 Z" fill="#000000" fill-rule="evenodd" fill-opacity="1" /><path clip-path="url(#clip610)" d="M2113.57 183.583 L2101.76 202.032 L2113.57 202.032 L2113.57 183.583 M2112.34 179.509 L2118.22 179.509 L2118.22 202.032 L2123.15 202.032 L2123.15 205.921 L2118.22 205.921 L2118.22 214.069 L2113.57 214.069 L2113.57 205.921 L2097.97 205.921 L2097.97 201.407 L2112.34 179.509 Z" fill="#000000" fill-rule="evenodd" fill-opacity="1" /><path clip-path="url(#clip610)" d="M2143.73 183.583 L2131.92 202.032 L2143.73 202.032 L2143.73 183.583 M2142.5 179.509 L2148.38 179.509 L2148.38 202.032 L2153.31 202.032 L2153.31 205.921 L2148.38 205.921 L2148.38 214.069 L2143.73 214.069 L2143.73 205.921 L2128.13 205.921 L2128.13 201.407 L2142.5 179.509 Z" fill="#000000" fill-rule="evenodd" fill-opacity="1" /><path clip-path="url(#clip610)" d="M2175.21 195.434 Q2178.57 196.152 2180.44 198.421 Q2182.34 200.689 2182.34 204.022 Q2182.34 209.138 2178.82 211.939 Q2175.3 214.74 2168.82 214.74 Q2166.65 214.74 2164.33 214.3 Q2162.04 213.883 2159.59 213.027 L2159.59 208.513 Q2161.53 209.647 2163.85 210.226 Q2166.16 210.805 2168.68 210.805 Q2173.08 210.805 2175.37 209.069 Q2177.69 207.333 2177.69 204.022 Q2177.69 200.967 2175.54 199.254 Q2173.41 197.518 2169.59 197.518 L2165.56 197.518 L2165.56 193.675 L2169.77 193.675 Q2173.22 193.675 2175.05 192.309 Q2176.88 190.921 2176.88 188.328 Q2176.88 185.666 2174.98 184.254 Q2173.1 182.819 2169.59 182.819 Q2167.66 182.819 2165.47 183.235 Q2163.27 183.652 2160.63 184.532 L2160.63 180.365 Q2163.29 179.624 2165.6 179.254 Q2167.94 178.884 2170 178.884 Q2175.33 178.884 2178.43 181.314 Q2181.53 183.722 2181.53 187.842 Q2181.53 190.712 2179.89 192.703 Q2178.24 194.671 2175.21 195.434 Z" fill="#000000" fill-rule="evenodd" fill-opacity="1" /><path clip-path="url(#clip610)" d="M2205.37 195.434 Q2208.73 196.152 2210.6 198.421 Q2212.5 200.689 2212.5 204.022 Q2212.5 209.138 2208.98 211.939 Q2205.47 214.74 2198.98 214.74 Q2196.81 214.74 2194.49 214.3 Q2192.2 213.883 2189.75 213.027 L2189.75 208.513 Q2191.69 209.647 2194.01 210.226 Q2196.32 210.805 2198.85 210.805 Q2203.24 210.805 2205.54 209.069 Q2207.85 207.333 2207.85 204.022 Q2207.85 200.967 2205.7 199.254 Q2203.57 197.518 2199.75 197.518 L2195.72 197.518 L2195.72 193.675 L2199.93 193.675 Q2203.38 193.675 2205.21 192.309 Q2207.04 190.921 2207.04 188.328 Q2207.04 185.666 2205.14 184.254 Q2203.27 182.819 2199.75 182.819 Q2197.83 182.819 2195.63 183.235 Q2193.43 183.652 2190.79 184.532 L2190.79 180.365 Q2193.45 179.624 2195.77 179.254 Q2198.1 178.884 2200.16 178.884 Q2205.49 178.884 2208.59 181.314 Q2211.69 183.722 2211.69 187.842 Q2211.69 190.712 2210.05 192.703 Q2208.41 194.671 2205.37 195.434 Z" fill="#000000" fill-rule="evenodd" fill-opacity="1" /><path clip-path="url(#clip610)" d="M2220.1 178.097 L2223.8 178.097 Q2227.27 183.56 2228.98 188.791 Q2230.72 194.022 2230.72 199.184 Q2230.72 204.37 2228.98 209.624 Q2227.27 214.879 2223.8 220.319 L2220.1 220.319 Q2223.17 215.018 2224.68 209.786 Q2226.21 204.532 2226.21 199.184 Q2226.21 193.837 2224.68 188.629 Q2223.17 183.421 2220.1 178.097 Z" fill="#000000" fill-rule="evenodd" fill-opacity="1" /></svg>
