<?xml version="1.0" encoding="utf-8"?>
<svg xmlns="http://www.w3.org/2000/svg" xmlns:xlink="http://www.w3.org/1999/xlink" width="600" height="400" viewBox="0 0 2400 1600">
<defs>
  <clipPath id="clip730">
    <rect x="0" y="0" width="2400" height="1600"/>
  </clipPath>
</defs>
<path clip-path="url(#clip730)" d="
M0 1600 L2400 1600 L2400 0 L0 0  Z
  " fill="#ffffff" fill-rule="evenodd" fill-opacity="1"/>
<defs>
  <clipPath id="clip731">
    <rect x="480" y="0" width="1681" height="1600"/>
  </clipPath>
</defs>
<path clip-path="url(#clip730)" d="
M303.503 1401.58 L2352.76 1401.58 L2352.76 47.2441 L303.503 47.2441  Z
  " fill="#ffffff" fill-rule="evenodd" fill-opacity="1"/>
<defs>
  <clipPath id="clip732">
    <rect x="303" y="47" width="2050" height="1355"/>
  </clipPath>
</defs>
<polyline clip-path="url(#clip732)" style="stroke:#000000; stroke-linecap:butt; stroke-linejoin:round; stroke-width:2; stroke-opacity:0.1; fill:none" points="
  361.501,1401.58 361.501,47.2441 
  "/>
<polyline clip-path="url(#clip732)" style="stroke:#000000; stroke-linecap:butt; stroke-linejoin:round; stroke-width:2; stroke-opacity:0.1; fill:none" points="
  748.152,1401.58 748.152,47.2441 
  "/>
<polyline clip-path="url(#clip732)" style="stroke:#000000; stroke-linecap:butt; stroke-linejoin:round; stroke-width:2; stroke-opacity:0.1; fill:none" points="
  1134.8,1401.58 1134.8,47.2441 
  "/>
<polyline clip-path="url(#clip732)" style="stroke:#000000; stroke-linecap:butt; stroke-linejoin:round; stroke-width:2; stroke-opacity:0.1; fill:none" points="
  1521.46,1401.58 1521.46,47.2441 
  "/>
<polyline clip-path="url(#clip732)" style="stroke:#000000; stroke-linecap:butt; stroke-linejoin:round; stroke-width:2; stroke-opacity:0.1; fill:none" points="
  1908.11,1401.58 1908.11,47.2441 
  "/>
<polyline clip-path="url(#clip732)" style="stroke:#000000; stroke-linecap:butt; stroke-linejoin:round; stroke-width:2; stroke-opacity:0.1; fill:none" points="
  2294.76,1401.58 2294.76,47.2441 
  "/>
<polyline clip-path="url(#clip730)" style="stroke:#000000; stroke-linecap:butt; stroke-linejoin:round; stroke-width:4; stroke-opacity:1; fill:none" points="
  303.503,1401.58 2352.76,1401.58 
  "/>
<polyline clip-path="url(#clip730)" style="stroke:#000000; stroke-linecap:butt; stroke-linejoin:round; stroke-width:4; stroke-opacity:1; fill:none" points="
  361.501,1401.58 361.501,1382.68 
  "/>
<polyline clip-path="url(#clip730)" style="stroke:#000000; stroke-linecap:butt; stroke-linejoin:round; stroke-width:4; stroke-opacity:1; fill:none" points="
  748.152,1401.58 748.152,1382.68 
  "/>
<polyline clip-path="url(#clip730)" style="stroke:#000000; stroke-linecap:butt; stroke-linejoin:round; stroke-width:4; stroke-opacity:1; fill:none" points="
  1134.8,1401.58 1134.8,1382.68 
  "/>
<polyline clip-path="url(#clip730)" style="stroke:#000000; stroke-linecap:butt; stroke-linejoin:round; stroke-width:4; stroke-opacity:1; fill:none" points="
  1521.46,1401.58 1521.46,1382.68 
  "/>
<polyline clip-path="url(#clip730)" style="stroke:#000000; stroke-linecap:butt; stroke-linejoin:round; stroke-width:4; stroke-opacity:1; fill:none" points="
  1908.11,1401.58 1908.11,1382.68 
  "/>
<polyline clip-path="url(#clip730)" style="stroke:#000000; stroke-linecap:butt; stroke-linejoin:round; stroke-width:4; stroke-opacity:1; fill:none" points="
  2294.76,1401.58 2294.76,1382.68 
  "/>
<path clip-path="url(#clip730)" d="M361.501 1438.36 Q356.084 1438.36 353.341 1443.71 Q350.633 1449.02 350.633 1459.71 Q350.633 1470.37 353.341 1475.72 Q356.084 1481.03 361.501 1481.03 Q366.952 1481.03 369.66 1475.72 Q372.403 1470.37 372.403 1459.71 Q372.403 1449.02 369.66 1443.71 Q366.952 1438.36 361.501 1438.36 M361.501 1432.8 Q370.216 1432.8 374.799 1439.71 Q379.417 1446.59 379.417 1459.71 Q379.417 1472.8 374.799 1479.71 Q370.216 1486.59 361.501 1486.59 Q352.785 1486.59 348.167 1479.71 Q343.584 1472.8 343.584 1459.71 Q343.584 1446.59 348.167 1439.71 Q352.785 1432.8 361.501 1432.8 Z" fill="#000000" fill-rule="evenodd" fill-opacity="1" /><path clip-path="url(#clip730)" d="M733.725 1479.68 L745.183 1479.68 L745.183 1440.13 L732.718 1442.63 L732.718 1436.24 L745.114 1433.74 L752.128 1433.74 L752.128 1479.68 L763.586 1479.68 L763.586 1485.58 L733.725 1485.58 L733.725 1479.68 Z" fill="#000000" fill-rule="evenodd" fill-opacity="1" /><path clip-path="url(#clip730)" d="M1126.78 1479.68 L1151.26 1479.68 L1151.26 1485.58 L1118.35 1485.58 L1118.35 1479.68 Q1122.34 1475.55 1129.21 1468.6 Q1136.12 1461.62 1137.89 1459.61 Q1141.26 1455.82 1142.58 1453.22 Q1143.94 1450.58 1143.94 1448.05 Q1143.94 1443.91 1141.02 1441.31 Q1138.14 1438.71 1133.48 1438.71 Q1130.19 1438.71 1126.51 1439.85 Q1122.86 1441 1118.69 1443.32 L1118.69 1436.24 Q1122.93 1434.54 1126.61 1433.67 Q1130.29 1432.8 1133.35 1432.8 Q1141.4 1432.8 1146.19 1436.83 Q1150.98 1440.86 1150.98 1447.59 Q1150.98 1450.79 1149.77 1453.67 Q1148.59 1456.52 1145.43 1460.41 Q1144.56 1461.41 1139.91 1466.24 Q1135.26 1471.03 1126.78 1479.68 Z" fill="#000000" fill-rule="evenodd" fill-opacity="1" /><path clip-path="url(#clip730)" d="M1527.83 1457.63 Q1532.86 1458.7 1535.67 1462.11 Q1538.52 1465.51 1538.52 1470.51 Q1538.52 1478.18 1533.24 1482.39 Q1527.97 1486.59 1518.24 1486.59 Q1514.98 1486.59 1511.51 1485.93 Q1508.07 1485.3 1504.39 1484.02 L1504.39 1477.25 Q1507.31 1478.95 1510.78 1479.82 Q1514.25 1480.68 1518.04 1480.68 Q1524.63 1480.68 1528.07 1478.08 Q1531.54 1475.48 1531.54 1470.51 Q1531.54 1465.93 1528.31 1463.36 Q1525.12 1460.75 1519.39 1460.75 L1513.35 1460.75 L1513.35 1454.99 L1519.67 1454.99 Q1524.84 1454.99 1527.58 1452.94 Q1530.33 1450.86 1530.33 1446.97 Q1530.33 1442.98 1527.48 1440.86 Q1524.67 1438.71 1519.39 1438.71 Q1516.51 1438.71 1513.21 1439.33 Q1509.91 1439.96 1505.95 1441.27 L1505.95 1435.02 Q1509.94 1433.91 1513.42 1433.36 Q1516.92 1432.8 1520.01 1432.8 Q1528 1432.8 1532.65 1436.45 Q1537.31 1440.06 1537.31 1446.24 Q1537.31 1450.55 1534.84 1453.53 Q1532.38 1456.48 1527.83 1457.63 Z" fill="#000000" fill-rule="evenodd" fill-opacity="1" /><path clip-path="url(#clip730)" d="M1912.62 1439.85 L1894.91 1467.52 L1912.62 1467.52 L1912.62 1439.85 M1910.78 1433.74 L1919.6 1433.74 L1919.6 1467.52 L1927 1467.52 L1927 1473.36 L1919.6 1473.36 L1919.6 1485.58 L1912.62 1485.58 L1912.62 1473.36 L1889.22 1473.36 L1889.22 1466.59 L1910.78 1433.74 Z" fill="#000000" fill-rule="evenodd" fill-opacity="1" /><path clip-path="url(#clip730)" d="M2280.17 1433.74 L2307.71 1433.74 L2307.71 1439.64 L2286.6 1439.64 L2286.6 1452.35 Q2288.13 1451.83 2289.65 1451.59 Q2291.18 1451.31 2292.71 1451.31 Q2301.39 1451.31 2306.46 1456.07 Q2311.53 1460.82 2311.53 1468.95 Q2311.53 1477.32 2306.32 1481.97 Q2301.11 1486.59 2291.63 1486.59 Q2288.37 1486.59 2284.97 1486.03 Q2281.6 1485.48 2277.99 1484.36 L2277.99 1477.32 Q2281.11 1479.02 2284.45 1479.85 Q2287.78 1480.68 2291.49 1480.68 Q2297.5 1480.68 2301.01 1477.52 Q2304.52 1474.36 2304.52 1468.95 Q2304.52 1463.53 2301.01 1460.37 Q2297.5 1457.21 2291.49 1457.21 Q2288.68 1457.21 2285.87 1457.84 Q2283.09 1458.46 2280.17 1459.78 L2280.17 1433.74 Z" fill="#000000" fill-rule="evenodd" fill-opacity="1" /><path clip-path="url(#clip730)" d="M1271.74 1527.62 L1271.74 1538.66 L1284.9 1538.66 L1284.9 1543.62 L1271.74 1543.62 L1271.74 1564.74 Q1271.74 1569.49 1273.03 1570.85 Q1274.35 1572.2 1278.34 1572.2 L1284.9 1572.2 L1284.9 1577.55 L1278.34 1577.55 Q1270.94 1577.55 1268.13 1574.8 Q1265.32 1572.03 1265.32 1564.74 L1265.32 1543.62 L1260.63 1543.62 L1260.63 1538.66 L1265.32 1538.66 L1265.32 1527.62 L1271.74 1527.62 Z" fill="#000000" fill-rule="evenodd" fill-opacity="1" /><path clip-path="url(#clip730)" d="M1315.32 1523.52 L1330.04 1523.52 L1330.04 1528.49 L1321.71 1528.49 L1321.71 1581.96 L1330.04 1581.96 L1330.04 1586.92 L1315.32 1586.92 L1315.32 1523.52 Z" fill="#000000" fill-rule="evenodd" fill-opacity="1" /><path clip-path="url(#clip730)" d="M1368.44 1539.8 L1368.44 1545.85 Q1365.73 1544.46 1362.82 1543.76 Q1359.9 1543.07 1356.78 1543.07 Q1352.02 1543.07 1349.62 1544.53 Q1347.26 1545.99 1347.26 1548.9 Q1347.26 1551.12 1348.96 1552.41 Q1350.66 1553.66 1355.8 1554.8 L1357.99 1555.29 Q1364.8 1556.75 1367.64 1559.42 Q1370.53 1562.06 1370.53 1566.82 Q1370.53 1572.24 1366.22 1575.4 Q1361.95 1578.55 1354.45 1578.55 Q1351.32 1578.55 1347.92 1577.93 Q1344.55 1577.34 1340.8 1576.12 L1340.8 1569.53 Q1344.34 1571.37 1347.78 1572.3 Q1351.22 1573.21 1354.59 1573.21 Q1359.1 1573.21 1361.53 1571.68 Q1363.96 1570.12 1363.96 1567.3 Q1363.96 1564.7 1362.19 1563.31 Q1360.46 1561.92 1354.52 1560.64 L1352.3 1560.12 Q1346.36 1558.87 1343.72 1556.3 Q1341.08 1553.69 1341.08 1549.18 Q1341.08 1543.69 1344.97 1540.71 Q1348.86 1537.72 1356.01 1537.72 Q1359.55 1537.72 1362.68 1538.24 Q1365.8 1538.76 1368.44 1539.8 Z" fill="#000000" fill-rule="evenodd" fill-opacity="1" /><path clip-path="url(#clip730)" d="M1395.63 1523.52 L1395.63 1586.92 L1380.91 1586.92 L1380.91 1581.96 L1389.21 1581.96 L1389.21 1528.49 L1380.91 1528.49 L1380.91 1523.52 L1395.63 1523.52 Z" fill="#000000" fill-rule="evenodd" fill-opacity="1" /><polyline clip-path="url(#clip732)" style="stroke:#000000; stroke-linecap:butt; stroke-linejoin:round; stroke-width:2; stroke-opacity:0.1; fill:none" points="
  303.503,1355.5 2352.76,1355.5 
  "/>
<polyline clip-path="url(#clip732)" style="stroke:#000000; stroke-linecap:butt; stroke-linejoin:round; stroke-width:2; stroke-opacity:0.1; fill:none" points="
  303.503,1091.02 2352.76,1091.02 
  "/>
<polyline clip-path="url(#clip732)" style="stroke:#000000; stroke-linecap:butt; stroke-linejoin:round; stroke-width:2; stroke-opacity:0.1; fill:none" points="
  303.503,826.538 2352.76,826.538 
  "/>
<polyline clip-path="url(#clip732)" style="stroke:#000000; stroke-linecap:butt; stroke-linejoin:round; stroke-width:2; stroke-opacity:0.1; fill:none" points="
  303.503,562.056 2352.76,562.056 
  "/>
<polyline clip-path="url(#clip732)" style="stroke:#000000; stroke-linecap:butt; stroke-linejoin:round; stroke-width:2; stroke-opacity:0.1; fill:none" points="
  303.503,297.574 2352.76,297.574 
  "/>
<polyline clip-path="url(#clip730)" style="stroke:#000000; stroke-linecap:butt; stroke-linejoin:round; stroke-width:4; stroke-opacity:1; fill:none" points="
  303.503,1401.58 303.503,47.2441 
  "/>
<polyline clip-path="url(#clip730)" style="stroke:#000000; stroke-linecap:butt; stroke-linejoin:round; stroke-width:4; stroke-opacity:1; fill:none" points="
  303.503,1355.5 322.401,1355.5 
  "/>
<polyline clip-path="url(#clip730)" style="stroke:#000000; stroke-linecap:butt; stroke-linejoin:round; stroke-width:4; stroke-opacity:1; fill:none" points="
  303.503,1091.02 322.401,1091.02 
  "/>
<polyline clip-path="url(#clip730)" style="stroke:#000000; stroke-linecap:butt; stroke-linejoin:round; stroke-width:4; stroke-opacity:1; fill:none" points="
  303.503,826.538 322.401,826.538 
  "/>
<polyline clip-path="url(#clip730)" style="stroke:#000000; stroke-linecap:butt; stroke-linejoin:round; stroke-width:4; stroke-opacity:1; fill:none" points="
  303.503,562.056 322.401,562.056 
  "/>
<polyline clip-path="url(#clip730)" style="stroke:#000000; stroke-linecap:butt; stroke-linejoin:round; stroke-width:4; stroke-opacity:1; fill:none" points="
  303.503,297.574 322.401,297.574 
  "/>
<path clip-path="url(#clip730)" d="M136.497 1334.2 Q131.08 1334.2 128.337 1339.55 Q125.629 1344.86 125.629 1355.55 Q125.629 1366.21 128.337 1371.56 Q131.08 1376.87 136.497 1376.87 Q141.948 1376.87 144.656 1371.56 Q147.399 1366.21 147.399 1355.55 Q147.399 1344.86 144.656 1339.55 Q141.948 1334.2 136.497 1334.2 M136.497 1328.64 Q145.212 1328.64 149.795 1335.55 Q154.413 1342.43 154.413 1355.55 Q154.413 1368.64 149.795 1375.55 Q145.212 1382.43 136.497 1382.43 Q127.781 1382.43 123.163 1375.55 Q118.58 1368.64 118.58 1355.55 Q118.58 1342.43 123.163 1335.55 Q127.781 1328.64 136.497 1328.64 Z" fill="#000000" fill-rule="evenodd" fill-opacity="1" /><path clip-path="url(#clip730)" d="M166.74 1372.6 L174.066 1372.6 L174.066 1381.42 L166.74 1381.42 L166.74 1372.6 Z" fill="#000000" fill-rule="evenodd" fill-opacity="1" /><path clip-path="url(#clip730)" d="M189.413 1329.58 L216.948 1329.58 L216.948 1335.48 L195.837 1335.48 L195.837 1348.19 Q197.364 1347.67 198.892 1347.43 Q200.42 1347.15 201.948 1347.15 Q210.628 1347.15 215.698 1351.91 Q220.767 1356.67 220.767 1364.79 Q220.767 1373.16 215.559 1377.81 Q210.35 1382.43 200.871 1382.43 Q197.608 1382.43 194.205 1381.87 Q190.837 1381.32 187.226 1380.21 L187.226 1373.16 Q190.351 1374.86 193.684 1375.69 Q197.017 1376.53 200.732 1376.53 Q206.739 1376.53 210.246 1373.37 Q213.753 1370.21 213.753 1364.79 Q213.753 1359.37 210.246 1356.21 Q206.739 1353.05 200.732 1353.05 Q197.92 1353.05 195.108 1353.68 Q192.33 1354.3 189.413 1355.62 L189.413 1329.58 Z" fill="#000000" fill-rule="evenodd" fill-opacity="1" /><path clip-path="url(#clip730)" d="M249.586 1334.2 Q244.17 1334.2 241.427 1339.55 Q238.718 1344.86 238.718 1355.55 Q238.718 1366.21 241.427 1371.56 Q244.17 1376.87 249.586 1376.87 Q255.038 1376.87 257.746 1371.56 Q260.489 1366.21 260.489 1355.55 Q260.489 1344.86 257.746 1339.55 Q255.038 1334.2 249.586 1334.2 M249.586 1328.64 Q258.302 1328.64 262.885 1335.55 Q267.503 1342.43 267.503 1355.55 Q267.503 1368.64 262.885 1375.55 Q258.302 1382.43 249.586 1382.43 Q240.871 1382.43 236.253 1375.55 Q231.67 1368.64 231.67 1355.55 Q231.67 1342.43 236.253 1335.55 Q240.871 1328.64 249.586 1328.64 Z" fill="#000000" fill-rule="evenodd" fill-opacity="1" /><path clip-path="url(#clip730)" d="M137.99 1069.72 Q132.573 1069.72 129.83 1075.07 Q127.122 1080.38 127.122 1091.07 Q127.122 1101.73 129.83 1107.08 Q132.573 1112.39 137.99 1112.39 Q143.441 1112.39 146.149 1107.08 Q148.892 1101.73 148.892 1091.07 Q148.892 1080.38 146.149 1075.07 Q143.441 1069.72 137.99 1069.72 M137.99 1064.16 Q146.705 1064.16 151.288 1071.07 Q155.906 1077.95 155.906 1091.07 Q155.906 1104.16 151.288 1111.07 Q146.705 1117.95 137.99 1117.95 Q129.275 1117.95 124.657 1111.07 Q120.073 1104.16 120.073 1091.07 Q120.073 1077.95 124.657 1071.07 Q129.275 1064.16 137.99 1064.16 Z" fill="#000000" fill-rule="evenodd" fill-opacity="1" /><path clip-path="url(#clip730)" d="M168.233 1108.12 L175.559 1108.12 L175.559 1116.94 L168.233 1116.94 L168.233 1108.12 Z" fill="#000000" fill-rule="evenodd" fill-opacity="1" /><path clip-path="url(#clip730)" d="M189.066 1065.1 L222.399 1065.1 L222.399 1068.09 L203.58 1116.94 L196.253 1116.94 L213.962 1071 L189.066 1071 L189.066 1065.1 Z" fill="#000000" fill-rule="evenodd" fill-opacity="1" /><path clip-path="url(#clip730)" d="M236.149 1065.1 L263.684 1065.1 L263.684 1071 L242.573 1071 L242.573 1083.71 Q244.1 1083.19 245.628 1082.95 Q247.156 1082.67 248.684 1082.67 Q257.364 1082.67 262.434 1087.43 Q267.503 1092.18 267.503 1100.31 Q267.503 1108.68 262.295 1113.33 Q257.086 1117.95 247.607 1117.95 Q244.343 1117.95 240.941 1117.39 Q237.573 1116.84 233.961 1115.72 L233.961 1108.68 Q237.086 1110.38 240.42 1111.21 Q243.753 1112.04 247.468 1112.04 Q253.475 1112.04 256.982 1108.88 Q260.489 1105.72 260.489 1100.31 Q260.489 1094.89 256.982 1091.73 Q253.475 1088.57 247.468 1088.57 Q244.656 1088.57 241.843 1089.2 Q239.066 1089.82 236.149 1091.14 L236.149 1065.1 Z" fill="#000000" fill-rule="evenodd" fill-opacity="1" /><path clip-path="url(#clip730)" d="M122.712 846.555 L134.17 846.555 L134.17 807.007 L121.705 809.507 L121.705 803.118 L134.101 800.618 L141.115 800.618 L141.115 846.555 L152.573 846.555 L152.573 852.458 L122.712 852.458 L122.712 846.555 Z" fill="#000000" fill-rule="evenodd" fill-opacity="1" /><path clip-path="url(#clip730)" d="M166.74 843.639 L174.066 843.639 L174.066 852.458 L166.74 852.458 L166.74 843.639 Z" fill="#000000" fill-rule="evenodd" fill-opacity="1" /><path clip-path="url(#clip730)" d="M204.344 805.236 Q198.927 805.236 196.184 810.583 Q193.476 815.896 193.476 826.59 Q193.476 837.25 196.184 842.597 Q198.927 847.909 204.344 847.909 Q209.795 847.909 212.503 842.597 Q215.246 837.25 215.246 826.59 Q215.246 815.896 212.503 810.583 Q209.795 805.236 204.344 805.236 M204.344 799.68 Q213.059 799.68 217.642 806.59 Q222.26 813.465 222.26 826.59 Q222.26 839.68 217.642 846.59 Q213.059 853.465 204.344 853.465 Q195.628 853.465 191.01 846.59 Q186.427 839.68 186.427 826.59 Q186.427 813.465 191.01 806.59 Q195.628 799.68 204.344 799.68 Z" fill="#000000" fill-rule="evenodd" fill-opacity="1" /><path clip-path="url(#clip730)" d="M249.586 805.236 Q244.17 805.236 241.427 810.583 Q238.718 815.896 238.718 826.59 Q238.718 837.25 241.427 842.597 Q244.17 847.909 249.586 847.909 Q255.038 847.909 257.746 842.597 Q260.489 837.25 260.489 826.59 Q260.489 815.896 257.746 810.583 Q255.038 805.236 249.586 805.236 M249.586 799.68 Q258.302 799.68 262.885 806.59 Q267.503 813.465 267.503 826.59 Q267.503 839.68 262.885 846.59 Q258.302 853.465 249.586 853.465 Q240.871 853.465 236.253 846.59 Q231.67 839.68 231.67 826.59 Q231.67 813.465 236.253 806.59 Q240.871 799.68 249.586 799.68 Z" fill="#000000" fill-rule="evenodd" fill-opacity="1" /><path clip-path="url(#clip730)" d="M124.205 582.073 L135.663 582.073 L135.663 542.525 L123.198 545.025 L123.198 538.636 L135.594 536.136 L142.608 536.136 L142.608 582.073 L154.066 582.073 L154.066 587.976 L124.205 587.976 L124.205 582.073 Z" fill="#000000" fill-rule="evenodd" fill-opacity="1" /><path clip-path="url(#clip730)" d="M168.233 579.156 L175.559 579.156 L175.559 587.976 L168.233 587.976 L168.233 579.156 Z" fill="#000000" fill-rule="evenodd" fill-opacity="1" /><path clip-path="url(#clip730)" d="M196.878 582.073 L221.357 582.073 L221.357 587.976 L188.441 587.976 L188.441 582.073 Q192.434 577.941 199.309 570.997 Q206.219 564.018 207.989 562.004 Q211.357 558.219 212.677 555.615 Q214.031 552.976 214.031 550.441 Q214.031 546.309 211.114 543.705 Q208.232 541.101 203.58 541.101 Q200.281 541.101 196.601 542.247 Q192.955 543.393 188.788 545.719 L188.788 538.636 Q193.024 536.934 196.705 536.066 Q200.385 535.198 203.441 535.198 Q211.496 535.198 216.288 539.226 Q221.08 543.254 221.08 549.99 Q221.08 553.184 219.864 556.066 Q218.684 558.913 215.524 562.802 Q214.656 563.809 210.003 568.636 Q205.351 573.427 196.878 582.073 Z" fill="#000000" fill-rule="evenodd" fill-opacity="1" /><path clip-path="url(#clip730)" d="M236.149 536.136 L263.684 536.136 L263.684 542.039 L242.573 542.039 L242.573 554.747 Q244.1 554.226 245.628 553.983 Q247.156 553.705 248.684 553.705 Q257.364 553.705 262.434 558.462 Q267.503 563.219 267.503 571.344 Q267.503 579.712 262.295 584.365 Q257.086 588.983 247.607 588.983 Q244.343 588.983 240.941 588.427 Q237.573 587.872 233.961 586.76 L233.961 579.712 Q237.086 581.413 240.42 582.247 Q243.753 583.08 247.468 583.08 Q253.475 583.08 256.982 579.92 Q260.489 576.761 260.489 571.344 Q260.489 565.927 256.982 562.768 Q253.475 559.608 247.468 559.608 Q244.656 559.608 241.843 560.233 Q239.066 560.858 236.149 562.177 L236.149 536.136 Z" fill="#000000" fill-rule="evenodd" fill-opacity="1" /><path clip-path="url(#clip730)" d="M122.712 317.591 L134.17 317.591 L134.17 278.042 L121.705 280.542 L121.705 274.154 L134.101 271.654 L141.115 271.654 L141.115 317.591 L152.573 317.591 L152.573 323.494 L122.712 323.494 L122.712 317.591 Z" fill="#000000" fill-rule="evenodd" fill-opacity="1" /><path clip-path="url(#clip730)" d="M166.74 314.674 L174.066 314.674 L174.066 323.494 L166.74 323.494 L166.74 314.674 Z" fill="#000000" fill-rule="evenodd" fill-opacity="1" /><path clip-path="url(#clip730)" d="M189.413 271.654 L216.948 271.654 L216.948 277.556 L195.837 277.556 L195.837 290.265 Q197.364 289.744 198.892 289.501 Q200.42 289.223 201.948 289.223 Q210.628 289.223 215.698 293.98 Q220.767 298.737 220.767 306.862 Q220.767 315.23 215.559 319.883 Q210.35 324.501 200.871 324.501 Q197.608 324.501 194.205 323.945 Q190.837 323.389 187.226 322.278 L187.226 315.23 Q190.351 316.931 193.684 317.764 Q197.017 318.598 200.732 318.598 Q206.739 318.598 210.246 315.438 Q213.753 312.278 213.753 306.862 Q213.753 301.445 210.246 298.285 Q206.739 295.126 200.732 295.126 Q197.92 295.126 195.108 295.751 Q192.33 296.376 189.413 297.695 L189.413 271.654 Z" fill="#000000" fill-rule="evenodd" fill-opacity="1" /><path clip-path="url(#clip730)" d="M249.586 276.272 Q244.17 276.272 241.427 281.619 Q238.718 286.931 238.718 297.626 Q238.718 308.285 241.427 313.633 Q244.17 318.945 249.586 318.945 Q255.038 318.945 257.746 313.633 Q260.489 308.285 260.489 297.626 Q260.489 286.931 257.746 281.619 Q255.038 276.272 249.586 276.272 M249.586 270.716 Q258.302 270.716 262.885 277.626 Q267.503 284.501 267.503 297.626 Q267.503 310.716 262.885 317.626 Q258.302 324.501 249.586 324.501 Q240.871 324.501 236.253 317.626 Q231.67 310.716 231.67 297.626 Q231.67 284.501 236.253 277.626 Q240.871 270.716 249.586 270.716 Z" fill="#000000" fill-rule="evenodd" fill-opacity="1" /><path clip-path="url(#clip730)" d="M35.6047 1006.89 Q31.2992 1004.5 29.2506 1001.16 Q27.202 997.831 27.202 993.317 Q27.202 987.24 31.4728 983.942 Q35.7089 980.643 43.5561 980.643 L67.0282 980.643 L67.0282 987.067 L43.7644 987.067 Q38.1741 987.067 35.4658 989.046 Q32.7575 991.025 32.7575 995.088 Q32.7575 1000.05 36.0561 1002.93 Q39.3547 1005.82 45.0491 1005.82 L67.0282 1005.82 L67.0282 1012.24 L43.7644 1012.24 Q38.1394 1012.24 35.4658 1014.22 Q32.7575 1016.2 32.7575 1020.33 Q32.7575 1025.23 36.0908 1028.11 Q39.3894 1030.99 45.0491 1030.99 L67.0282 1030.99 L67.0282 1037.41 L28.1395 1037.41 L28.1395 1030.99 L34.1811 1030.99 Q30.6047 1028.8 28.9034 1025.75 Q27.202 1022.69 27.202 1018.49 Q27.202 1014.25 29.3547 1011.3 Q31.5075 1008.32 35.6047 1006.89 Z" fill="#000000" fill-rule="evenodd" fill-opacity="1" /><path clip-path="url(#clip730)" d="M47.4797 950.227 Q47.4797 957.97 49.2505 960.956 Q51.0213 963.942 55.2921 963.942 Q58.6949 963.942 60.7087 961.72 Q62.6879 959.463 62.6879 955.609 Q62.6879 950.296 58.9379 947.102 Q55.1532 943.873 48.9033 943.873 L47.4797 943.873 L47.4797 950.227 M44.8408 937.484 L67.0282 937.484 L67.0282 943.873 L61.1254 943.873 Q64.6671 946.06 66.3684 949.324 Q68.0351 952.588 68.0351 957.31 Q68.0351 963.282 64.7018 966.824 Q61.3337 970.331 55.7088 970.331 Q49.1463 970.331 45.813 965.956 Q42.4797 961.546 42.4797 952.831 L42.4797 943.873 L41.8547 943.873 Q37.445 943.873 35.0492 946.789 Q32.6186 949.671 32.6186 954.914 Q32.6186 958.248 33.4172 961.407 Q34.2158 964.567 35.813 967.484 L29.9103 967.484 Q28.5561 963.977 27.8964 960.678 Q27.202 957.379 27.202 954.254 Q27.202 945.817 31.577 941.65 Q35.9519 937.484 44.8408 937.484 Z" fill="#000000" fill-rule="evenodd" fill-opacity="1" /><path clip-path="url(#clip730)" d="M29.2853 899.533 L35.3269 899.533 Q33.9381 902.241 33.2436 905.158 Q32.5492 908.074 32.5492 911.199 Q32.5492 915.956 34.0075 918.352 Q35.4658 920.713 38.3825 920.713 Q40.6047 920.713 41.8894 919.012 Q43.1394 917.31 44.2852 912.171 L44.7713 909.984 Q46.2297 903.178 48.9033 900.331 Q51.5421 897.449 56.299 897.449 Q61.7157 897.449 64.8754 901.755 Q68.0351 906.026 68.0351 913.526 Q68.0351 916.651 67.4101 920.053 Q66.8198 923.421 65.6046 927.171 L59.0074 927.171 Q60.8476 923.63 61.7851 920.192 Q62.6879 916.755 62.6879 913.387 Q62.6879 908.873 61.1601 906.442 Q59.5976 904.012 56.7852 904.012 Q54.181 904.012 52.7921 905.783 Q51.4032 907.519 50.1185 913.456 L49.5977 915.678 Q48.3477 921.616 45.7783 924.255 Q43.1741 926.894 38.6603 926.894 Q33.1742 926.894 30.1881 923.005 Q27.202 919.116 27.202 911.963 Q27.202 908.421 27.7228 905.296 Q28.2436 902.171 29.2853 899.533 Z" fill="#000000" fill-rule="evenodd" fill-opacity="1" /><path clip-path="url(#clip730)" d="M29.2853 862.484 L35.3269 862.484 Q33.9381 865.192 33.2436 868.109 Q32.5492 871.026 32.5492 874.151 Q32.5492 878.908 34.0075 881.303 Q35.4658 883.665 38.3825 883.665 Q40.6047 883.665 41.8894 881.963 Q43.1394 880.262 44.2852 875.123 L44.7713 872.935 Q46.2297 866.13 48.9033 863.283 Q51.5421 860.401 56.299 860.401 Q61.7157 860.401 64.8754 864.706 Q68.0351 868.977 68.0351 876.477 Q68.0351 879.602 67.4101 883.005 Q66.8198 886.373 65.6046 890.123 L59.0074 890.123 Q60.8476 886.581 61.7851 883.144 Q62.6879 879.706 62.6879 876.338 Q62.6879 871.824 61.1601 869.394 Q59.5976 866.963 56.7852 866.963 Q54.181 866.963 52.7921 868.734 Q51.4032 870.47 50.1185 876.408 L49.5977 878.63 Q48.3477 884.567 45.7783 887.206 Q43.1741 889.845 38.6603 889.845 Q33.1742 889.845 30.1881 885.956 Q27.202 882.067 27.202 874.915 Q27.202 871.373 27.7228 868.248 Q28.2436 865.123 29.2853 862.484 Z" fill="#000000" fill-rule="evenodd" fill-opacity="1" /><path clip-path="url(#clip730)" d="M61.1949 821.443 L81.8197 821.443 L81.8197 827.866 L28.1395 827.866 L28.1395 821.443 L34.0422 821.443 Q30.57 819.429 28.9034 816.373 Q27.202 813.283 27.202 809.012 Q27.202 801.929 32.827 797.519 Q38.4519 793.075 47.6185 793.075 Q56.7852 793.075 62.4101 797.519 Q68.0351 801.929 68.0351 809.012 Q68.0351 813.283 66.3684 816.373 Q64.6671 819.429 61.1949 821.443 M47.6185 799.707 Q40.57 799.707 36.5769 802.623 Q32.5492 805.505 32.5492 810.575 Q32.5492 815.644 36.5769 818.561 Q40.57 821.443 47.6185 821.443 Q54.6671 821.443 58.6949 818.561 Q62.6879 815.644 62.6879 810.575 Q62.6879 805.505 58.6949 802.623 Q54.6671 799.707 47.6185 799.707 Z" fill="#000000" fill-rule="evenodd" fill-opacity="1" /><path clip-path="url(#clip730)" d="M32.6186 767.415 Q32.6186 772.554 36.6464 775.54 Q40.6394 778.526 47.6185 778.526 Q54.5977 778.526 58.6254 775.575 Q62.6185 772.589 62.6185 767.415 Q62.6185 762.311 58.5907 759.325 Q54.5629 756.339 47.6185 756.339 Q40.7089 756.339 36.6811 759.325 Q32.6186 762.311 32.6186 767.415 M27.202 767.415 Q27.202 759.082 32.6186 754.325 Q38.0353 749.568 47.6185 749.568 Q57.1671 749.568 62.6185 754.325 Q68.0351 759.082 68.0351 767.415 Q68.0351 775.783 62.6185 780.54 Q57.1671 785.262 47.6185 785.262 Q38.0353 785.262 32.6186 780.54 Q27.202 775.783 27.202 767.415 Z" fill="#000000" fill-rule="evenodd" fill-opacity="1" /><path clip-path="url(#clip730)" d="M29.2853 714.186 L35.3269 714.186 Q33.9381 716.895 33.2436 719.811 Q32.5492 722.728 32.5492 725.853 Q32.5492 730.61 34.0075 733.006 Q35.4658 735.367 38.3825 735.367 Q40.6047 735.367 41.8894 733.665 Q43.1394 731.964 44.2852 726.825 L44.7713 724.638 Q46.2297 717.832 48.9033 714.985 Q51.5421 712.103 56.299 712.103 Q61.7157 712.103 64.8754 716.409 Q68.0351 720.679 68.0351 728.179 Q68.0351 731.304 67.4101 734.707 Q66.8198 738.075 65.6046 741.825 L59.0074 741.825 Q60.8476 738.283 61.7851 734.846 Q62.6879 731.408 62.6879 728.04 Q62.6879 723.527 61.1601 721.096 Q59.5976 718.665 56.7852 718.665 Q54.181 718.665 52.7921 720.436 Q51.4032 722.172 50.1185 728.11 L49.5977 730.332 Q48.3477 736.27 45.7783 738.908 Q43.1741 741.547 38.6603 741.547 Q33.1742 741.547 30.1881 737.658 Q27.202 733.77 27.202 726.617 Q27.202 723.075 27.7228 719.95 Q28.2436 716.825 29.2853 714.186 Z" fill="#000000" fill-rule="evenodd" fill-opacity="1" /><path clip-path="url(#clip730)" d="M28.1395 701.929 L28.1395 695.541 L67.0282 695.541 L67.0282 701.929 L28.1395 701.929 M13.0007 701.929 L13.0007 695.541 L21.0909 695.541 L21.0909 701.929 L13.0007 701.929 Z" fill="#000000" fill-rule="evenodd" fill-opacity="1" /><path clip-path="url(#clip730)" d="M17.0979 675.853 L28.1395 675.853 L28.1395 662.694 L33.1047 662.694 L33.1047 675.853 L54.2157 675.853 Q58.9726 675.853 60.3268 674.568 Q61.681 673.249 61.681 669.256 L61.681 662.694 L67.0282 662.694 L67.0282 669.256 Q67.0282 676.652 64.2851 679.464 Q61.5074 682.277 54.2157 682.277 L33.1047 682.277 L33.1047 686.964 L28.1395 686.964 L28.1395 682.277 L17.0979 682.277 L17.0979 675.853 Z" fill="#000000" fill-rule="evenodd" fill-opacity="1" /><path clip-path="url(#clip730)" d="M28.1395 654.291 L28.1395 647.902 L67.0282 647.902 L67.0282 654.291 L28.1395 654.291 M13.0007 654.291 L13.0007 647.902 L21.0909 647.902 L21.0909 654.291 L13.0007 654.291 Z" fill="#000000" fill-rule="evenodd" fill-opacity="1" /><path clip-path="url(#clip730)" d="M32.6186 619.465 Q32.6186 624.603 36.6464 627.59 Q40.6394 630.576 47.6185 630.576 Q54.5977 630.576 58.6254 627.624 Q62.6185 624.638 62.6185 619.465 Q62.6185 614.36 58.5907 611.374 Q54.5629 608.388 47.6185 608.388 Q40.7089 608.388 36.6811 611.374 Q32.6186 614.36 32.6186 619.465 M27.202 619.465 Q27.202 611.131 32.6186 606.374 Q38.0353 601.617 47.6185 601.617 Q57.1671 601.617 62.6185 606.374 Q68.0351 611.131 68.0351 619.465 Q68.0351 627.833 62.6185 632.59 Q57.1671 637.312 47.6185 637.312 Q38.0353 637.312 32.6186 632.59 Q27.202 627.833 27.202 619.465 Z" fill="#000000" fill-rule="evenodd" fill-opacity="1" /><path clip-path="url(#clip730)" d="M43.5561 558.701 L67.0282 558.701 L67.0282 565.09 L43.7644 565.09 Q38.2436 565.09 35.5005 567.243 Q32.7575 569.395 32.7575 573.701 Q32.7575 578.875 36.0561 581.861 Q39.3547 584.847 45.0491 584.847 L67.0282 584.847 L67.0282 591.27 L28.1395 591.27 L28.1395 584.847 L34.1811 584.847 Q30.6742 582.555 28.9381 579.465 Q27.202 576.34 27.202 572.277 Q27.202 565.576 31.3686 562.139 Q35.5005 558.701 43.5561 558.701 Z" fill="#000000" fill-rule="evenodd" fill-opacity="1" /><path clip-path="url(#clip730)" d="M13.0007 523.944 L13.0007 509.222 L17.9659 509.222 L17.9659 517.555 L71.4379 517.555 L71.4379 509.222 L76.4031 509.222 L76.4031 523.944 L13.0007 523.944 Z" fill="#000000" fill-rule="evenodd" fill-opacity="1" /><path clip-path="url(#clip730)" d="M35.6047 465.333 Q31.2992 462.938 29.2506 459.604 Q27.202 456.271 27.202 451.757 Q27.202 445.681 31.4728 442.382 Q35.7089 439.084 43.5561 439.084 L67.0282 439.084 L67.0282 445.507 L43.7644 445.507 Q38.1741 445.507 35.4658 447.486 Q32.7575 449.466 32.7575 453.528 Q32.7575 458.493 36.0561 461.375 Q39.3547 464.257 45.0491 464.257 L67.0282 464.257 L67.0282 470.681 L43.7644 470.681 Q38.1394 470.681 35.4658 472.66 Q32.7575 474.639 32.7575 478.771 Q32.7575 483.667 36.0908 486.549 Q39.3894 489.431 45.0491 489.431 L67.0282 489.431 L67.0282 495.854 L28.1395 495.854 L28.1395 489.431 L34.1811 489.431 Q30.6047 487.243 28.9034 484.188 Q27.202 481.132 27.202 476.931 Q27.202 472.695 29.3547 469.743 Q31.5075 466.757 35.6047 465.333 Z" fill="#000000" fill-rule="evenodd" fill-opacity="1" /><path clip-path="url(#clip730)" d="M13.0007 411.41 L76.4031 411.41 L76.4031 426.132 L71.4379 426.132 L71.4379 417.834 L17.9659 417.834 L17.9659 426.132 L13.0007 426.132 L13.0007 411.41 Z" fill="#000000" fill-rule="evenodd" fill-opacity="1" /><polyline clip-path="url(#clip732)" style="stroke:#009af9; stroke-linecap:butt; stroke-linejoin:round; stroke-width:8; stroke-opacity:1; fill:none" points="
  361.501,1355.5 400.166,1324.01 438.831,1232.75 477.496,1090.75 516.161,912.045 554.826,714.211 593.492,516.931 632.157,339.856 670.822,200.59 709.487,112.923 
  748.152,85.5744 786.817,121.257 825.482,216.438 864.148,361.678 902.813,542.559 941.478,741.144 980.143,937.715 1018.81,1112.77 1057.47,1248.94 1096.14,1332.7 
  1134.8,1355.73 1173.47,1315.74 1212.13,1216.71 1250.8,1068.45 1289.46,885.661 1328.13,686.5 1366.79,490.715 1405.46,317.751 1444.12,184.759 1482.79,104.956 
  1521.46,86.2534 1560.12,130.52 1598.79,233.368 1637.45,384.587 1676.12,569.188 1714.78,768.834 1753.45,963.735 1792.11,1134.53 1830.78,1264.28 1869.44,1340.09 
  1908.11,1354.44 1946.77,1305.91 1985.44,1199.3 2024.1,1045.19 2062.77,858.864 2101.43,658.82 2140.1,464.903 2178.76,296.363 2217.43,169.926 2256.09,98.1422 
  2294.76,88.1421 
  "/>
<polyline clip-path="url(#clip732)" style="stroke:#e26f46; stroke-linecap:butt; stroke-linejoin:round; stroke-width:8; stroke-opacity:1; fill:none" points="
  361.501,1355.5 400.166,1332.62 438.831,1264.84 477.496,1157.75 516.161,1021.57 554.826,869.522 593.492,716.7 632.157,578.45 670.822,468.593 709.487,398.376 
  748.152,375.885 786.817,397.186 825.482,455.563 864.148,546.413 902.813,661.25 941.478,788.825 980.143,916.516 1018.81,1031.62 1057.47,1122.58 1096.14,1179.91 
  1134.8,1196.68 1173.47,1178.31 1212.13,1130.8 1250.8,1057.77 1289.46,965.922 1328.13,864.143 1366.79,762.403 1405.46,670.884 1444.12,598.962 1482.79,554.354 
  1521.46,542.54 1560.12,556.58 1598.79,591.211 1637.45,643.977 1676.12,710.254 1714.78,783.813 1753.45,857.419 1792.11,923.7 1830.78,975.786 1869.44,1007.92 
  1908.11,1015.93 1946.77,1007.92 1985.44,988.761 2024.1,959.614 2062.77,922.885 2101.43,881.853 2140.1,840.486 2178.76,802.952 2217.43,773.252 2256.09,754.851 
  2294.76,750.155 
  "/>
<polyline clip-path="url(#clip732)" style="stroke:#3da44d; stroke-linecap:butt; stroke-linejoin:round; stroke-width:8; stroke-opacity:1; fill:none" points="
  361.501,1355.5 400.166,1363.25 438.831,1304.9 477.496,1182.31 516.161,996.274 554.826,784.018 593.492,593.247 632.157,437.842 670.822,332.224 709.487,283.156 
  748.152,290.712 786.817,349.675 825.482,452.156 864.148,589.751 902.813,717.47 941.478,813.153 980.143,892.745 1018.81,953.186 1057.47,989.93 1096.14,998.893 
  1134.8,978.19 1173.47,928.612 1212.13,853.728 1250.8,764.083 1289.46,681.223 1328.13,611.361 1366.79,562.835 1405.46,539.098 1444.12,541.018 1482.79,566.878 
  1521.46,614.49 1560.12,677.491 1598.79,729.961 1637.45,763.731 1676.12,787.386 1714.78,801.239 1753.45,804.754 1792.11,798.454 1830.78,784.354 1869.44,766.888 
  1908.11,752.572 1946.77,741.296 1985.44,730.5 2024.1,719.284 2062.77,708.362 2101.43,699.338 2140.1,693.659 2178.76,692.309 2217.43,695.493 2256.09,702.554 
  2294.76,712.032 
  "/>
<path clip-path="url(#clip730)" d="
M1799.25 299.749 L2284.45 299.749 L2284.45 92.3886 L1799.25 92.3886  Z
  " fill="#ffffff" fill-rule="evenodd" fill-opacity="1"/>
<polyline clip-path="url(#clip730)" style="stroke:#000000; stroke-linecap:butt; stroke-linejoin:round; stroke-width:4; stroke-opacity:1; fill:none" points="
  1799.25,299.749 2284.45,299.749 2284.45,92.3886 1799.25,92.3886 1799.25,299.749 
  "/>
<polyline clip-path="url(#clip730)" style="stroke:#009af9; stroke-linecap:butt; stroke-linejoin:round; stroke-width:4; stroke-opacity:1; fill:none" points="
  1822.02,144.229 1958.64,144.229 
  "/>
<path clip-path="url(#clip730)" d="M2003.66 128.083 L2003.66 132.643 Q2000.99 131.37 1998.63 130.745 Q1996.27 130.12 1994.07 130.12 Q1990.25 130.12 1988.17 131.601 Q1986.11 133.083 1986.11 135.814 Q1986.11 138.106 1987.47 139.287 Q1988.86 140.444 1992.71 141.162 L1995.53 141.74 Q2000.76 142.736 2003.24 145.259 Q2005.74 147.759 2005.74 151.972 Q2005.74 156.995 2002.36 159.587 Q1999 162.18 1992.5 162.18 Q1990.04 162.18 1987.27 161.624 Q1984.51 161.069 1981.55 159.981 L1981.55 155.166 Q1984.4 156.763 1987.13 157.573 Q1989.86 158.384 1992.5 158.384 Q1996.5 158.384 1998.68 156.81 Q2000.85 155.236 2000.85 152.319 Q2000.85 149.773 1999.28 148.337 Q1997.73 146.902 1994.16 146.185 L1991.32 145.629 Q1986.09 144.587 1983.75 142.365 Q1981.41 140.143 1981.41 136.185 Q1981.41 131.601 1984.63 128.962 Q1987.87 126.324 1993.54 126.324 Q1995.97 126.324 1998.49 126.763 Q2001.02 127.203 2003.66 128.083 Z" fill="#000000" fill-rule="evenodd" fill-opacity="1" /><path clip-path="url(#clip730)" d="M2012.84 135.583 L2017.1 135.583 L2017.1 161.509 L2012.84 161.509 L2012.84 135.583 M2012.84 125.49 L2017.1 125.49 L2017.1 130.884 L2012.84 130.884 L2012.84 125.49 Z" fill="#000000" fill-rule="evenodd" fill-opacity="1" /><path clip-path="url(#clip730)" d="M2046.2 140.56 Q2047.8 137.689 2050.02 136.324 Q2052.24 134.958 2055.25 134.958 Q2059.3 134.958 2061.5 137.805 Q2063.7 140.629 2063.7 145.861 L2063.7 161.509 L2059.42 161.509 L2059.42 145.999 Q2059.42 142.273 2058.1 140.467 Q2056.78 138.662 2054.07 138.662 Q2050.76 138.662 2048.84 140.861 Q2046.92 143.06 2046.92 146.856 L2046.92 161.509 L2042.64 161.509 L2042.64 145.999 Q2042.64 142.249 2041.32 140.467 Q2040 138.662 2037.24 138.662 Q2033.98 138.662 2032.06 140.884 Q2030.14 143.083 2030.14 146.856 L2030.14 161.509 L2025.85 161.509 L2025.85 135.583 L2030.14 135.583 L2030.14 139.611 Q2031.59 137.226 2033.63 136.092 Q2035.67 134.958 2038.47 134.958 Q2041.29 134.958 2043.26 136.393 Q2045.25 137.828 2046.2 140.56 Z" fill="#000000" fill-rule="evenodd" fill-opacity="1" /><path clip-path="url(#clip730)" d="M2076.32 157.62 L2076.32 171.37 L2072.03 171.37 L2072.03 135.583 L2076.32 135.583 L2076.32 139.518 Q2077.66 137.203 2079.7 136.092 Q2081.76 134.958 2084.6 134.958 Q2089.33 134.958 2092.27 138.708 Q2095.23 142.458 2095.23 148.569 Q2095.23 154.68 2092.27 158.43 Q2089.33 162.18 2084.6 162.18 Q2081.76 162.18 2079.7 161.069 Q2077.66 159.935 2076.32 157.62 M2090.81 148.569 Q2090.81 143.87 2088.86 141.208 Q2086.94 138.523 2083.56 138.523 Q2080.18 138.523 2078.24 141.208 Q2076.32 143.87 2076.32 148.569 Q2076.32 153.268 2078.24 155.953 Q2080.18 158.615 2083.56 158.615 Q2086.94 158.615 2088.86 155.953 Q2090.81 153.268 2090.81 148.569 Z" fill="#000000" fill-rule="evenodd" fill-opacity="1" /><path clip-path="url(#clip730)" d="M2102.29 125.49 L2106.55 125.49 L2106.55 161.509 L2102.29 161.509 L2102.29 125.49 Z" fill="#000000" fill-rule="evenodd" fill-opacity="1" /><path clip-path="url(#clip730)" d="M2137.64 147.481 L2137.64 149.564 L2118.05 149.564 Q2118.33 153.962 2120.69 156.277 Q2123.08 158.569 2127.31 158.569 Q2129.77 158.569 2132.06 157.967 Q2134.37 157.365 2136.64 156.161 L2136.64 160.189 Q2134.35 161.161 2131.94 161.671 Q2129.53 162.18 2127.06 162.18 Q2120.85 162.18 2117.22 158.569 Q2113.61 154.958 2113.61 148.8 Q2113.61 142.435 2117.03 138.708 Q2120.48 134.958 2126.32 134.958 Q2131.55 134.958 2134.58 138.337 Q2137.64 141.694 2137.64 147.481 M2133.38 146.231 Q2133.33 142.736 2131.41 140.652 Q2129.51 138.569 2126.36 138.569 Q2122.8 138.569 2120.65 140.583 Q2118.52 142.597 2118.19 146.254 L2133.38 146.231 Z" fill="#000000" fill-rule="evenodd" fill-opacity="1" /><path clip-path="url(#clip730)" d="M2144.81 126.949 L2164.67 126.949 L2164.67 130.884 L2149.49 130.884 L2149.49 141.069 L2163.19 141.069 L2163.19 145.004 L2149.49 145.004 L2149.49 161.509 L2144.81 161.509 L2144.81 126.949 Z" fill="#000000" fill-rule="evenodd" fill-opacity="1" /><path clip-path="url(#clip730)" d="M2172.08 126.949 L2179.05 126.949 L2187.87 150.467 L2196.73 126.949 L2203.7 126.949 L2203.7 161.509 L2199.14 161.509 L2199.14 131.162 L2190.23 154.865 L2185.53 154.865 L2176.62 131.162 L2176.62 161.509 L2172.08 161.509 L2172.08 126.949 Z" fill="#000000" fill-rule="evenodd" fill-opacity="1" /><path clip-path="url(#clip730)" d="M2212.45 126.949 L2217.15 126.949 L2217.15 147.944 Q2217.15 153.499 2219.16 155.953 Q2221.18 158.384 2225.69 158.384 Q2230.18 158.384 2232.2 155.953 Q2234.21 153.499 2234.21 147.944 L2234.21 126.949 L2238.91 126.949 L2238.91 148.523 Q2238.91 155.282 2235.55 158.731 Q2232.22 162.18 2225.69 162.18 Q2219.14 162.18 2215.78 158.731 Q2212.45 155.282 2212.45 148.523 L2212.45 126.949 Z" fill="#000000" fill-rule="evenodd" fill-opacity="1" /><polyline clip-path="url(#clip730)" style="stroke:#e26f46; stroke-linecap:butt; stroke-linejoin:round; stroke-width:4; stroke-opacity:1; fill:none" points="
  1822.02,196.069 1958.64,196.069 
  "/>
<path clip-path="url(#clip730)" d="M1997.8 197.145 Q1999.3 197.654 2000.72 199.321 Q2002.15 200.988 2003.59 203.904 L2008.33 213.349 L2003.31 213.349 L1998.89 204.483 Q1997.17 201.011 1995.55 199.876 Q1993.96 198.742 1991.18 198.742 L1986.09 198.742 L1986.09 213.349 L1981.41 213.349 L1981.41 178.789 L1991.97 178.789 Q1997.89 178.789 2000.81 181.265 Q2003.72 183.742 2003.72 188.742 Q2003.72 192.006 2002.2 194.159 Q2000.69 196.312 1997.8 197.145 M1986.09 182.631 L1986.09 194.9 L1991.97 194.9 Q1995.35 194.9 1997.06 193.349 Q1998.79 191.775 1998.79 188.742 Q1998.79 185.71 1997.06 184.182 Q1995.35 182.631 1991.97 182.631 L1986.09 182.631 Z" fill="#000000" fill-rule="evenodd" fill-opacity="1" /><path clip-path="url(#clip730)" d="M2034.21 199.321 L2034.21 201.404 L2014.63 201.404 Q2014.91 205.802 2017.27 208.117 Q2019.65 210.409 2023.89 210.409 Q2026.34 210.409 2028.63 209.807 Q2030.95 209.205 2033.22 208.001 L2033.22 212.029 Q2030.92 213.001 2028.52 213.511 Q2026.11 214.02 2023.63 214.02 Q2017.43 214.02 2013.79 210.409 Q2010.18 206.798 2010.18 200.64 Q2010.18 194.275 2013.61 190.548 Q2017.06 186.798 2022.89 186.798 Q2028.12 186.798 2031.16 190.177 Q2034.21 193.534 2034.21 199.321 M2029.95 198.071 Q2029.91 194.576 2027.98 192.492 Q2026.09 190.409 2022.94 190.409 Q2019.37 190.409 2017.22 192.423 Q2015.09 194.437 2014.77 198.094 L2029.95 198.071 Z" fill="#000000" fill-rule="evenodd" fill-opacity="1" /><path clip-path="url(#clip730)" d="M2052.98 200.316 Q2047.82 200.316 2045.83 201.497 Q2043.84 202.677 2043.84 205.525 Q2043.84 207.793 2045.32 209.136 Q2046.83 210.455 2049.4 210.455 Q2052.94 210.455 2055.07 207.955 Q2057.22 205.432 2057.22 201.265 L2057.22 200.316 L2052.98 200.316 M2061.48 198.557 L2061.48 213.349 L2057.22 213.349 L2057.22 209.413 Q2055.76 211.775 2053.59 212.909 Q2051.41 214.02 2048.26 214.02 Q2044.28 214.02 2041.92 211.798 Q2039.58 209.552 2039.58 205.802 Q2039.58 201.427 2042.5 199.205 Q2045.44 196.983 2051.25 196.983 L2057.22 196.983 L2057.22 196.566 Q2057.22 193.627 2055.28 192.029 Q2053.35 190.409 2049.86 190.409 Q2047.64 190.409 2045.53 190.941 Q2043.42 191.474 2041.48 192.539 L2041.48 188.603 Q2043.82 187.701 2046.02 187.261 Q2048.22 186.798 2050.3 186.798 Q2055.92 186.798 2058.7 189.714 Q2061.48 192.631 2061.48 198.557 Z" fill="#000000" fill-rule="evenodd" fill-opacity="1" /><path clip-path="url(#clip730)" d="M2070.25 177.33 L2074.51 177.33 L2074.51 213.349 L2070.25 213.349 L2070.25 177.33 Z" fill="#000000" fill-rule="evenodd" fill-opacity="1" /><path clip-path="url(#clip730)" d="M2083.61 178.789 L2103.47 178.789 L2103.47 182.724 L2088.28 182.724 L2088.28 192.909 L2101.99 192.909 L2101.99 196.844 L2088.28 196.844 L2088.28 213.349 L2083.61 213.349 L2083.61 178.789 Z" fill="#000000" fill-rule="evenodd" fill-opacity="1" /><path clip-path="url(#clip730)" d="M2110.88 178.789 L2117.84 178.789 L2126.66 202.307 L2135.53 178.789 L2142.5 178.789 L2142.5 213.349 L2137.94 213.349 L2137.94 183.002 L2129.02 206.705 L2124.33 206.705 L2115.41 183.002 L2115.41 213.349 L2110.88 213.349 L2110.88 178.789 Z" fill="#000000" fill-rule="evenodd" fill-opacity="1" /><path clip-path="url(#clip730)" d="M2151.25 178.789 L2155.95 178.789 L2155.95 199.784 Q2155.95 205.339 2157.96 207.793 Q2159.97 210.224 2164.49 210.224 Q2168.98 210.224 2170.99 207.793 Q2173.01 205.339 2173.01 199.784 L2173.01 178.789 L2177.71 178.789 L2177.71 200.363 Q2177.71 207.122 2174.35 210.571 Q2171.02 214.02 2164.49 214.02 Q2157.94 214.02 2154.58 210.571 Q2151.25 207.122 2151.25 200.363 L2151.25 178.789 Z" fill="#000000" fill-rule="evenodd" fill-opacity="1" /><polyline clip-path="url(#clip730)" style="stroke:#3da44d; stroke-linecap:butt; stroke-linejoin:round; stroke-width:4; stroke-opacity:1; fill:none" points="
  1822.02,247.909 1958.64,247.909 
  "/>
<path clip-path="url(#clip730)" d="M1981.41 230.629 L1987.71 230.629 L2003.03 259.541 L2003.03 230.629 L2007.57 230.629 L2007.57 265.189 L2001.27 265.189 L1985.95 236.277 L1985.95 265.189 L1981.41 265.189 L1981.41 230.629 Z" fill="#000000" fill-rule="evenodd" fill-opacity="1" /><path clip-path="url(#clip730)" d="M2038.86 251.161 L2038.86 253.244 L2019.28 253.244 Q2019.56 257.642 2021.92 259.957 Q2024.3 262.249 2028.54 262.249 Q2030.99 262.249 2033.28 261.647 Q2035.6 261.045 2037.87 259.841 L2037.87 263.869 Q2035.58 264.841 2033.17 265.351 Q2030.76 265.86 2028.28 265.86 Q2022.08 265.86 2018.45 262.249 Q2014.84 258.638 2014.84 252.48 Q2014.84 246.115 2018.26 242.388 Q2021.71 238.638 2027.54 238.638 Q2032.78 238.638 2035.81 242.017 Q2038.86 245.374 2038.86 251.161 M2034.6 249.911 Q2034.56 246.416 2032.64 244.332 Q2030.74 242.249 2027.59 242.249 Q2024.03 242.249 2021.87 244.263 Q2019.74 246.277 2019.42 249.934 L2034.6 249.911 Z" fill="#000000" fill-rule="evenodd" fill-opacity="1" /><path clip-path="url(#clip730)" d="M2045.41 254.957 L2045.41 239.263 L2049.67 239.263 L2049.67 254.795 Q2049.67 258.476 2051.11 260.328 Q2052.54 262.156 2055.41 262.156 Q2058.86 262.156 2060.85 259.957 Q2062.87 257.758 2062.87 253.962 L2062.87 239.263 L2067.13 239.263 L2067.13 265.189 L2062.87 265.189 L2062.87 261.207 Q2061.32 263.568 2059.26 264.726 Q2057.22 265.86 2054.51 265.86 Q2050.04 265.86 2047.73 263.082 Q2045.41 260.304 2045.41 254.957 M2056.13 238.638 L2056.13 238.638 Z" fill="#000000" fill-rule="evenodd" fill-opacity="1" /><path clip-path="url(#clip730)" d="M2090.92 243.244 Q2090.21 242.828 2089.35 242.642 Q2088.52 242.434 2087.5 242.434 Q2083.89 242.434 2081.94 244.795 Q2080.02 247.133 2080.02 251.531 L2080.02 265.189 L2075.74 265.189 L2075.74 239.263 L2080.02 239.263 L2080.02 243.291 Q2081.36 240.929 2083.52 239.795 Q2085.67 238.638 2088.75 238.638 Q2089.19 238.638 2089.72 238.707 Q2090.25 238.754 2090.9 238.869 L2090.92 243.244 Z" fill="#000000" fill-rule="evenodd" fill-opacity="1" /><path clip-path="url(#clip730)" d="M2107.17 252.156 Q2102.01 252.156 2100.02 253.337 Q2098.03 254.517 2098.03 257.365 Q2098.03 259.633 2099.51 260.976 Q2101.02 262.295 2103.59 262.295 Q2107.13 262.295 2109.26 259.795 Q2111.41 257.272 2111.41 253.105 L2111.41 252.156 L2107.17 252.156 M2115.67 250.397 L2115.67 265.189 L2111.41 265.189 L2111.41 261.253 Q2109.95 263.615 2107.77 264.749 Q2105.6 265.86 2102.45 265.86 Q2098.47 265.86 2096.11 263.638 Q2093.77 261.392 2093.77 257.642 Q2093.77 253.267 2096.69 251.045 Q2099.63 248.823 2105.44 248.823 L2111.41 248.823 L2111.41 248.406 Q2111.41 245.467 2109.46 243.869 Q2107.54 242.249 2104.05 242.249 Q2101.83 242.249 2099.72 242.781 Q2097.61 243.314 2095.67 244.379 L2095.67 240.443 Q2098.01 239.541 2100.21 239.101 Q2102.4 238.638 2104.49 238.638 Q2110.11 238.638 2112.89 241.554 Q2115.67 244.471 2115.67 250.397 Z" fill="#000000" fill-rule="evenodd" fill-opacity="1" /><path clip-path="url(#clip730)" d="M2124.44 229.17 L2128.7 229.17 L2128.7 265.189 L2124.44 265.189 L2124.44 229.17 Z" fill="#000000" fill-rule="evenodd" fill-opacity="1" /><path clip-path="url(#clip730)" d="M2137.8 230.629 L2157.66 230.629 L2157.66 234.564 L2142.47 234.564 L2142.47 244.749 L2156.18 244.749 L2156.18 248.684 L2142.47 248.684 L2142.47 265.189 L2137.8 265.189 L2137.8 230.629 Z" fill="#000000" fill-rule="evenodd" fill-opacity="1" /><path clip-path="url(#clip730)" d="M2165.07 230.629 L2172.03 230.629 L2180.85 254.147 L2189.72 230.629 L2196.69 230.629 L2196.69 265.189 L2192.13 265.189 L2192.13 234.842 L2183.21 258.545 L2178.52 258.545 L2169.6 234.842 L2169.6 265.189 L2165.07 265.189 L2165.07 230.629 Z" fill="#000000" fill-rule="evenodd" fill-opacity="1" /><path clip-path="url(#clip730)" d="M2205.44 230.629 L2210.14 230.629 L2210.14 251.624 Q2210.14 257.179 2212.15 259.633 Q2214.16 262.064 2218.68 262.064 Q2223.17 262.064 2225.18 259.633 Q2227.2 257.179 2227.2 251.624 L2227.2 230.629 L2231.89 230.629 L2231.89 252.203 Q2231.89 258.962 2228.54 262.411 Q2225.2 265.86 2218.68 265.86 Q2212.13 265.86 2208.77 262.411 Q2205.44 258.962 2205.44 252.203 L2205.44 230.629 Z" fill="#000000" fill-rule="evenodd" fill-opacity="1" /></svg>
